<svg width="132" height="132" viewBox="0 0 132 132" fill="none" xmlns="http://www.w3.org/2000/svg">
<mask id="mask0_8820_1479" style="mask-type:luminance" maskUnits="userSpaceOnUse" x="0" y="0" width="132" height="132">
<path d="M132 0H0V132H132V0Z" fill="white"/>
</mask>
<g mask="url(#mask0_8820_1479)">
<path d="M28.1772 72.8446C12.2831 97.1915 42.6493 108.395 61.854 108.395C80.7395 108.395 102.083 101.272 102.083 79.3775C102.083 23.0171 55.4571 31.0552 28.1772 72.8446Z" fill="#ECE9F4"/>
<path d="M79.6294 109.985C81.3574 109.994 82.7531 111.405 82.744 113.133C82.7349 114.861 81.3245 116.256 79.5965 116.247C77.8684 116.238 76.4728 114.828 76.4819 113.1C76.4909 111.372 77.9013 109.976 79.6294 109.985Z" fill="#ECE9F4"/>
<path d="M105.941 96.6886C105.958 98.0224 104.771 99.1196 103.289 99.139C101.807 99.1585 100.591 98.0929 100.574 96.759C100.556 95.4251 101.743 94.328 103.226 94.3085C104.708 94.2891 105.923 95.3547 105.941 96.6886Z" fill="#ECE9F4"/>
<path d="M98.4584 101.038C98.4519 101.532 97.9261 101.926 97.2839 101.918C96.6416 101.909 96.1263 101.502 96.1328 101.008C96.1393 100.514 96.6651 100.12 97.3074 100.129C97.9496 100.137 98.4649 100.544 98.4584 101.038Z" fill="#ECE9F4"/>
<path d="M67.1347 31.6915C67.114 33.2725 65.4152 34.5319 63.3402 34.5047C61.2652 34.4774 59.6001 33.1739 59.6209 31.5929C59.6416 30.0119 61.3404 28.7525 63.4154 28.7798C65.4904 28.807 67.1555 30.1106 67.1347 31.6915Z" fill="#ECE9F4"/>
<path d="M18.9391 69.258C18.9599 70.8389 17.2948 72.1425 15.2198 72.1697C13.1448 72.1969 11.446 70.9375 11.4253 69.3566C11.4045 67.7756 13.0696 66.4721 15.1446 66.4448C17.2196 66.4176 18.9184 67.677 18.9391 69.258Z" fill="#ECE9F4"/>
<path d="M27.8177 42.5263C27.8073 43.3168 27.0781 43.9481 26.1888 43.9364C25.2996 43.9248 24.587 43.2745 24.5974 42.484C24.6078 41.6935 25.3371 41.0622 26.2263 41.0739C27.1157 41.0855 27.8281 41.7358 27.8177 42.5263Z" fill="#ECE9F4"/>
<path d="M101.479 28.0284C99.1043 29.3488 96.2882 30.1525 93.5188 30.2187C87.5113 30.3621 76.8054 24.6715 61.6385 23.4869C43.089 22.0382 27.5532 31.5755 29.9585 52.4708" stroke="#8987BF" stroke-width="2.861" stroke-miterlimit="10" stroke-dasharray="8.17 16.35"/>
<path d="M95.9296 31.3226L96.2533 26.8905L110.199 24.7819L95.9296 31.3226Z" fill="#A6A4E8"/>
<path d="M110.199 24.7802L99.1733 32.4199L96.9514 28.3029L110.199 24.7802Z" fill="#DEDFF5"/>
<path d="M110.199 24.7811L96.2531 26.8896L94.131 22.9746L110.199 24.7811Z" fill="#DEDFF5"/>
<path d="M96.9516 28.3041L95.9293 31.322L97.9203 30.0987L96.9516 28.3041Z" fill="#8987BF"/>
<mask id="mask1_8820_1479" style="mask-type:alpha" maskUnits="userSpaceOnUse" x="19" y="24" width="84" height="85">
<path d="M19.7016 58.6486C18.0946 71.1165 23.0825 91.4402 28.8648 97.2098C36.4564 104.785 50.9542 108.395 61.8555 108.395C80.741 108.395 102.084 101.271 102.084 79.3768C102.084 66.9687 99.8541 55.4381 93.0822 44.6648C81.4792 26.2055 64.6215 22.3494 52.4887 25.9871C39.539 29.8697 21.9725 41.0283 19.7016 58.6486Z" fill="#FF0000"/>
</mask>
<g mask="url(#mask1_8820_1479)">
<mask id="mask2_8820_1479" style="mask-type:luminance" maskUnits="userSpaceOnUse" x="0" y="0" width="133" height="132">
<path d="M0.000244141 0H132V132H0.000244141V0Z" fill="white"/>
</mask>
<g mask="url(#mask2_8820_1479)">
<path d="M72.8947 93.336C70.7187 94.6651 67.8729 93.9775 66.5438 91.8015C65.2147 89.6255 65.9023 86.7797 68.0782 85.4506C70.2542 84.1215 73.1001 84.8091 74.4292 86.985C75.7583 89.161 75.0707 92.0069 72.8947 93.336Z" fill="#6C52CF"/>
<path d="M61.3704 74.4664C58.8525 76.0043 55.5594 75.2087 54.0214 72.6908C52.4835 70.1729 53.2791 66.8798 55.797 65.3418C58.3149 63.8039 61.608 64.5995 63.1459 67.1174C64.6839 69.6353 63.8883 72.9284 61.3704 74.4664Z" fill="#6C52CF"/>
<path d="M54.484 65.6371C53.2167 66.6662 52.8373 69.1355 53.1153 70.5399C53.376 71.8579 54.799 74.0367 56.0374 76.7469C57.2756 79.457 65.4569 91.8984 67.9033 93.3437C70.3497 94.7889 72.3863 94.6039 73.9452 93.0791C75.5042 91.5544 75.5822 88.6775 74.5815 87.1246C72.6618 84.1458 70.7048 80.6935 70.7048 80.6935C70.7048 80.6935 65.6639 71.5281 64.631 69.4426C63.5983 67.357 60.0273 61.1357 54.484 65.6371Z" fill="#6D52CF"/>
<path d="M72.6763 85.3459C74.9163 86.5641 75.7459 89.3718 74.5277 91.6118C73.3095 93.8517 70.5018 94.6814 68.2618 93.4632C66.0219 92.245 65.1923 89.4373 66.4104 87.1973C67.6286 84.9573 70.4363 84.1277 72.6763 85.3459Z" fill="#6C52CF"/>
<path d="M69.6817 90.953C72.0523 92.0979 73.1896 92.3131 74.1971 91.8992C75.4133 91.3997 75.7363 83.7823 75.7363 83.7823L75.8996 82.4036L73.2434 80.7981L72.2 81.6307L67.9166 85.0638C67.9166 85.0638 66.7102 86.6536 66.4392 87.1583C65.7532 88.4356 68.7716 90.5134 69.6817 90.953Z" fill="#AEBFDE"/>
<path d="M72.6763 85.3448C74.9163 86.563 75.7459 89.3707 74.5277 91.6107C73.3095 93.8507 70.5018 94.6803 68.2618 93.4621C66.0218 92.2439 65.1922 89.4362 66.4104 87.1962C67.6286 84.9562 70.4363 84.1266 72.6763 85.3448ZM69.6827 90.9517C72.0531 92.0966 73.1893 92.3118 74.197 91.8982C75.0442 91.5505 75.458 87.7532 75.6316 85.478C74.7318 85.0217 69.6827 83.6492 69.6827 83.6492L67.9163 85.0626C67.9163 85.0626 66.7109 86.6519 66.4396 87.1565C65.7534 88.4346 68.7722 90.5121 69.6827 90.9517Z" stroke="#6D53CF"/>
<path d="M72.6763 85.3459C74.9163 86.5641 75.7459 89.3718 74.5277 91.6118C73.3095 93.8517 70.5018 94.6814 68.2618 93.4632C66.0219 92.245 65.1923 89.4373 66.4104 87.1973C67.6286 84.9573 70.4363 84.1277 72.6763 85.3459Z" fill="#6C52CF"/>
<path d="M69.6816 90.9517C72.0522 92.0966 73.1895 92.3118 74.197 91.8979C75.0436 91.5502 75.4574 87.7533 75.6308 85.4778C74.7312 85.0208 69.6826 83.6488 69.6826 83.6488L67.9165 85.0626C67.9165 85.0626 66.7101 86.6523 66.4391 87.157C65.7531 88.4343 68.7715 90.5121 69.6816 90.9517Z" fill="#6D53CF"/>
<path d="M43.8845 54.4093C45.8656 55.4223 47.8841 56.3593 49.9146 57.2697C50.5263 57.5432 51.1436 57.8176 51.799 57.9552L51.934 61.6629C51.934 61.6629 53.8895 64.2692 53.8235 64.4619C53.8214 64.4682 53.8161 64.4729 53.8136 64.4791C53.204 65.9971 49.5824 67.6424 47.8488 67.642C45.9791 67.6416 43.9803 66.5486 43.4838 64.8391C43.4461 64.8276 43.774 59.9867 43.6643 58.933C43.63 58.6102 43.588 58.2879 43.5361 57.968C43.4126 57.1699 43.2439 56.3797 43.0755 55.5875C42.9369 54.9379 42.7987 54.2863 42.6602 53.6367C43.0486 53.9896 43.4144 54.1688 43.8845 54.4093Z" fill="#FFCFCA"/>
<path d="M55.8939 48.0307C55.6832 50.6073 54.5576 53.112 52.7172 54.9275C51.8755 55.7579 50.8846 56.4476 49.7825 56.8758C48.5729 57.3459 47.2533 57.4921 45.9573 57.4244C45.1923 57.3843 44.421 57.2685 43.7184 56.9628C42.8765 56.5964 42.1729 55.9759 41.5173 55.3329C40.3967 54.2339 39.3636 53.0291 38.5974 51.6593C37.8311 50.2895 37.3391 48.7438 37.3441 47.1742C37.3458 46.6415 37.4065 46.1007 37.6127 45.6094C37.8873 44.9552 38.3993 44.4327 38.9238 43.955C40.6565 42.3769 42.6902 41.0831 44.9487 40.4574C47.2847 39.8102 49.7527 39.8981 52.1749 39.9909C52.7879 40.0144 53.3473 40.1343 53.8397 40.5194C54.2423 40.8344 54.463 41.3664 54.6831 41.8145C55.2899 43.0502 55.6898 44.3886 55.851 45.7562C55.9398 46.5105 55.9558 47.2736 55.8939 48.0307Z" fill="#534741"/>
<path d="M51.934 61.6628C49.6663 61.1564 47.4732 60.328 45.4676 59.1638C44.8297 58.7942 44.1677 58.3976 43.5361 57.968C43.4126 57.1699 43.2439 56.3797 43.0755 55.5875C42.9369 54.9379 42.7987 54.2863 42.6602 53.6367C43.0486 53.9896 43.4143 54.1688 43.8844 54.4093C45.8655 55.4223 47.884 56.3593 49.9145 57.2697C50.5262 57.5432 51.1437 57.8176 51.799 57.9552L51.934 61.6628Z" fill="#F9BFBB"/>
<path d="M55.6243 46.8187C55.4824 46.2457 55.3089 45.6812 55.1083 45.1319C54.4763 43.3983 53.3057 41.8022 51.7453 40.747C48.7494 38.7233 44.5623 39.218 42.1456 41.8806C41.572 42.5114 41.1077 43.2331 40.7782 44.0105C39.9644 45.9167 39.9217 47.9681 40.3645 49.9432C40.753 51.6901 41.5227 53.3781 42.4716 54.8572C43.0558 55.7659 43.7325 56.6226 44.535 57.3605C44.994 57.7827 45.5001 58.1646 46.0399 58.489C47.1246 59.1407 48.3481 59.5597 49.6174 59.6018C50.7642 59.6397 51.9328 59.3379 52.9007 58.734C53.9921 58.0529 54.653 57.0037 55.1266 55.8529C56.2922 53.0172 56.362 49.7875 55.6243 46.8187Z" fill="#FFCFCA"/>
<path d="M42.9967 54.2498C41.9067 54.7953 40.5265 54.7155 39.5144 54.0341C38.6591 53.4592 38.0999 52.4734 38.0223 51.4484C38.0086 51.2625 38.0106 51.0761 38.0289 50.8877C38.0616 50.5604 38.1457 50.2358 38.3013 49.9463C38.6894 49.2331 39.5343 48.8127 40.3428 48.8783C41.153 48.9443 41.8979 49.4683 42.2847 50.1825L42.5584 51.7466L42.9967 54.2498Z" fill="#FFCFCA"/>
<path d="M46.4176 44.6632C48.2476 44.3185 50.0825 43.9107 51.8154 43.2628C53.2235 42.7363 54.7829 41.7237 55.1603 40.2009C55.6323 38.2956 54.0311 36.8328 52.4366 36.0856C49.323 34.6265 45.4752 34.8835 42.6322 36.8475C40.9063 38.0399 39.6079 39.8139 39.0116 41.7946C38.6694 42.9309 38.5267 44.649 39.8648 45.1769C41.4193 45.7901 43.3417 45.2156 44.9189 44.9354C45.4167 44.8469 45.9169 44.7574 46.4176 44.6632Z" fill="#534741"/>
<path d="M35.9065 45.0513C36.0661 43.8721 36.5873 42.7835 37.548 42.1724C38.9425 41.2854 41.0522 41.5355 41.8988 43.0531C42.4519 44.0446 42.4608 45.308 42.3102 46.404C42.2397 46.9171 42.104 47.4295 41.8295 47.8739C41.6458 48.1712 41.0234 48.9412 40.6073 48.8804C40.4685 48.86 40.3237 48.8414 40.2049 48.8318C40.1809 48.83 40.157 48.8287 40.1328 48.8281C39.7074 48.8294 39.3107 48.9366 38.943 49.1497C38.6683 49.2977 38.4477 49.5 38.2813 49.7567C37.7582 50.3279 36.9714 49.3413 36.6944 48.9245C36.0242 47.916 35.721 46.4224 35.9065 45.0513Z" fill="#534741"/>
<path d="M51.4352 47.4102C51.4933 47.5151 51.6213 47.4865 51.7221 47.448C52.0261 47.3317 52.3302 47.2155 52.6342 47.0993C52.8059 47.0337 52.9789 46.9678 53.1548 46.9429C53.2559 46.9285 53.8915 47.0412 53.9074 46.9011C53.9252 46.744 53.3966 46.5925 53.3049 46.5699C52.8339 46.454 52.3286 46.5492 51.8636 46.7557C51.6763 46.8389 51.4668 46.9755 51.418 47.2215C51.4052 47.2863 51.4064 47.3583 51.4352 47.4102Z" fill="#211A17"/>
<path d="M47.2126 48.1661C47.3727 48.129 47.5368 48.1326 47.6997 48.1363C47.9881 48.1429 48.2765 48.1497 48.5649 48.1562C48.6606 48.1583 48.7788 48.1415 48.8132 48.0202C48.8303 47.9602 48.8195 47.8905 48.7976 47.8326C48.7142 47.6125 48.5063 47.5535 48.3267 47.5382C47.8809 47.5004 47.4173 47.5841 47.0187 47.8588C46.9411 47.9124 46.4973 48.2417 46.5387 48.3867C46.5756 48.5162 47.1207 48.1873 47.2126 48.1661Z" fill="#211A17"/>
<path d="M48.6861 50.2154C48.7024 50.7609 48.4034 51.2124 48.0184 51.224C47.6333 51.2355 47.3079 50.8026 47.2917 50.257C47.2754 49.7115 47.5744 49.26 47.9594 49.2484C48.3445 49.2369 48.6699 49.6698 48.6861 50.2154Z" fill="#211A17"/>
<path d="M48.1815 49.9982C47.9572 50.0049 47.9673 50.3536 48.192 50.3469C48.4162 50.3402 48.4061 49.9915 48.1815 49.9982Z" fill="white"/>
<path d="M52.4047 50.1047C52.421 50.6502 52.7464 51.0831 53.1314 51.0716C53.5165 51.0601 53.8154 50.6086 53.7992 50.063C53.7829 49.5175 53.4575 49.0846 53.0725 49.0961C52.6874 49.1076 52.3885 49.5591 52.4047 50.1047Z" fill="#211A17"/>
<path d="M53.4051 49.7404C53.1782 49.7472 53.1884 50.0996 53.4156 50.0928C53.6425 50.086 53.6323 49.7336 53.4051 49.7404Z" fill="white"/>
<path d="M51.2134 51.5228C50.9861 51.3459 50.6318 51.3512 50.4179 51.5442L51.0393 52.6188C51.2127 52.6076 51.3547 52.4638 51.4185 52.3021C51.5242 52.0341 51.4406 51.6998 51.2134 51.5228Z" fill="#CE7872"/>
<path d="M46.205 51.3888C45.1802 51.4597 44.3959 52.1921 44.4536 53.0249C44.5112 53.8577 45.3886 54.4754 46.4135 54.4045C47.4383 54.3336 48.2226 53.601 48.1649 52.7684C48.1073 51.9357 47.2299 51.3179 46.205 51.3888Z" fill="#F9BFBB"/>
<path d="M51.2363 56.3024C50.0818 56.3829 49.0939 55.6872 49.0297 54.7501C49.0201 54.6202 49.0298 54.4932 49.0558 54.3691L50.999 54.3696L53.1954 54.3701C53.1993 54.3999 53.2049 54.4297 53.2078 54.4605C53.272 55.3985 52.3897 56.2228 51.2363 56.3024Z" fill="#CE7872"/>
<path d="M52.9836 54.37C52.6573 54.901 52.0079 55.2876 51.2364 55.3403C50.3378 55.4027 49.5404 54.9956 49.2 54.3691L51.1529 54.3696L52.9836 54.37Z" fill="white"/>
<path d="M55.5891 51.8009C55.5567 51.3337 55.0643 50.987 54.4892 51.0268C53.914 51.0665 53.474 51.4776 53.5064 51.9449C53.5387 52.4122 54.0311 52.7588 54.6063 52.719C55.1814 52.6793 55.6215 52.2682 55.5891 51.8009Z" fill="#F9BFBB"/>
<path d="M43.5855 61.6375C43.5855 61.6375 34.993 63.1635 32.4706 66.3139C29.9401 69.4742 33.0152 73.8526 33.1366 77.1275C33.2581 80.4023 35.811 113.429 35.811 113.429C35.811 113.429 48.1516 114.805 54.3566 113.433C60.5617 112.061 64.8439 110.806 64.8439 110.806C64.8439 110.806 62.7084 79.0901 62.2202 75.8153C61.7321 72.5404 62.3338 67.3597 60.38 64.6704C58.8408 62.5517 52.1729 62.0479 52.1729 62.0479C52.1729 62.0479 53.5186 65.7709 49.3605 65.5917C45.2024 65.4124 43.5855 61.6375 43.5855 61.6375Z" fill="#7D67CF"/>
<path d="M68.677 75.3104C68.0032 75.1993 65.1437 75.0194 64.0821 75.2329C63.0207 75.4463 59.738 75.7468 58.4925 76.1563C57.2469 76.566 56.3777 78.5586 55.3789 79.2678C55.1667 79.4185 54.8704 79.6263 54.5099 79.8768C53.9712 80.2508 53.3828 81.7 54.3844 82.7599C55.3861 83.8198 56.5271 83.1784 56.7024 83.0786C57.835 82.4341 57.8489 82.063 58.7207 81.9544C59.7273 81.8291 59.5787 81.8692 60.4521 81.5601C61.3255 81.251 61.717 79.8268 62.2888 79.3061C62.8606 78.7855 63.7302 78.1844 63.5578 77.8648C63.3854 77.5451 63.2678 77.1374 61.1878 77.9921C61.1878 77.9921 63.115 76.8857 64.0276 76.7126C64.9403 76.5393 66.9185 76.4445 67.8311 76.2714C68.7438 76.0982 69.3508 75.4213 68.677 75.3104Z" fill="#FEC4AD"/>
<path d="M61.8263 86.3539L69.378 88.1046C70.1539 88.2802 71.0926 87.8121 71.4783 87.0603L79.8691 70.4543C80.2513 69.7091 79.9418 68.9602 79.1745 68.7805L71.6922 66.9951C70.3136 66.9464 69.6059 67.2633 69.2124 68.028L60.8111 84.5128C60.4142 85.2841 60.5192 85.8001 61.8263 86.3539Z" fill="#97A3CC"/>
<path d="M62.2505 86.4891L69.8386 88.2522C70.6191 88.4293 71.5627 87.9603 71.9494 87.2061L80.3734 70.5263C80.7569 69.7788 80.4442 69.0274 79.6718 68.8473L72.1497 67.0573C71.3401 66.8685 70.3596 67.3388 69.9632 68.1091L61.4907 84.7453C61.091 85.5224 61.4329 86.3035 62.2505 86.4891Z" fill="url(#paint0_linear_8820_1479)"/>
<path d="M74.4812 83.539C75.2413 83.3457 76.2546 83.2683 76.5079 82.8042C76.7614 82.3401 77.1413 82.2242 77.5635 81.8761C77.9858 81.528 77.7325 81.1801 78.2391 80.7546C78.7457 80.3292 78.2391 79.5945 78.2813 79.2077C78.3236 78.821 78.3658 78.0476 78.197 77.3514C78.028 76.6552 77.3525 76.5005 76.4658 76.2299C75.579 75.9592 74.9456 75.9592 74.9456 76.3846C74.9456 76.8101 75.8746 77.3901 75.8746 77.3901C75.8746 77.3901 74.3546 76.9261 73.9323 76.7714C73.5101 76.6167 72.8345 76.9648 73.13 77.4674C73.4256 77.9702 74.65 78.6277 75.0301 78.8211C75.4101 79.0145 75.6211 79.4011 75.6211 79.4011C75.6211 79.4011 74.4811 79.4011 73.6789 79.0917C72.8766 78.7823 72.1589 78.0862 71.6099 78.3957C71.0611 78.7051 71.3565 79.0917 71.9055 79.5171C71.9055 79.5171 73.0878 80.2518 73.4678 80.4065C73.4678 80.4065 72.2856 80.4453 71.6944 80.2133C71.1033 79.9812 70.8076 80.2518 70.9766 80.6773C71.1454 81.1027 72.7921 81.4507 72.8344 81.6054C72.8766 81.7601 72.5388 82.1468 72.3277 82.6109C72.1167 83.0751 74.4812 83.539 74.4812 83.539Z" fill="#FEC4AD"/>
<path d="M38.582 88.9788C39.5636 91.332 38.4499 94.0397 36.0967 95.0213C33.7434 96.0029 31.0358 94.8892 30.0542 92.5359C29.0726 90.1827 30.1863 87.475 32.5395 86.4934C34.8928 85.5118 37.6004 86.6255 38.582 88.9788Z" fill="#7C67CF"/>
<path d="M30.0468 92.591C31.3722 94.8874 32.6717 95.5392 35.0241 95.3028C37.8633 95.0175 54.0479 85.8413 54.0479 85.8413L56.5986 84.2523L54.5961 78.9274L51.8277 79.8669L39.0652 84.1007C39.0652 84.1007 34.0751 85.8568 32.6609 86.4499C29.082 87.951 29.538 91.7095 30.0468 92.591Z" fill="#AEBFDE"/>
<path d="M38.5816 88.9809C39.5631 91.3341 38.4495 94.0418 36.0962 95.0234C33.7429 96.005 31.0353 94.8913 30.0537 92.538C29.0721 90.1848 30.1858 87.4771 32.5391 86.4955C34.8923 85.5139 37.6 86.6276 38.5816 88.9809ZM30.0469 92.5938C31.3723 94.89 32.672 95.5406 35.0236 95.3049C37.8639 95.0198 54.048 85.8434 54.048 85.8434L51.8276 79.8687L39.0652 84.1023C39.0652 84.1023 34.0756 85.8589 32.661 86.4518C29.0823 87.9531 29.5376 91.7121 30.0469 92.5938Z" stroke="#6D53CF"/>
<path d="M38.582 88.9807C39.5636 91.334 38.4499 94.0416 36.0967 95.0232C33.7434 96.0048 31.0358 94.8911 30.0542 92.5379C29.0726 90.1846 30.1863 87.477 32.5395 86.4954C34.8928 85.5138 37.6004 86.6275 38.582 88.9807Z" fill="#7C67CF"/>
<path d="M30.0468 92.5925C31.3722 94.8888 32.6718 95.5406 35.0241 95.3042C37.8633 95.019 54.0479 85.8428 54.0479 85.8428L51.8277 79.8683L39.0653 84.1021C39.0653 84.1021 34.0751 85.8582 32.6609 86.4514C29.082 87.9525 29.5381 91.7109 30.0468 92.5925Z" fill="#6D53CF"/>
<path d="M33.8814 95.4212C31.3426 95.1847 29.4732 92.9314 29.7097 90.3926C29.9462 87.8539 32.1994 85.9845 34.7382 86.221C37.277 86.4574 39.1463 88.7107 38.9099 91.2495C38.6734 93.7883 36.4201 95.6576 33.8814 95.4212Z" fill="#7C67CF"/>
<path d="M35.7481 75.3792C32.8103 75.1056 30.6473 72.4983 30.9209 69.5605C31.1945 66.6228 33.8019 64.4597 36.7396 64.7333C39.6774 65.0069 41.8404 67.6143 41.5668 70.552C41.2932 73.4898 38.6858 75.6528 35.7481 75.3792Z" fill="#7C67CF"/>
<path d="M35.465 64.6837C33.8356 64.7316 32.0699 66.3186 31.4634 67.4944C30.8941 68.5978 30.7522 70.9704 30.1472 73.6276C29.5422 76.2846 28.7763 89.8638 29.8924 92.2688C31.0086 94.6737 32.7586 95.6656 34.9161 95.4184C37.0736 95.1712 38.8374 93.1208 38.9495 91.4372C39.1645 88.2077 39.6292 84.6129 39.6292 84.6129C39.6292 84.6129 40.9879 75.1548 41.389 73.0658C41.7903 70.9769 42.5922 64.4743 35.465 64.6837Z" fill="#6D52CF"/>
</g>
</g>
<path d="M80.8506 63.4257L101.575 51.3477L80.8506 63.4257Z" fill="#6D52CF"/>
<path d="M80.8506 63.4257L101.575 51.3477" stroke="#A6A4E8" stroke-width="20" stroke-linecap="round"/>
<path d="M80.85 63.4257L101.672 75.3342L80.85 63.4257Z" fill="#6D52CF"/>
<path d="M80.85 63.4257L101.672 75.3342" stroke="#A6A4E8" stroke-width="20" stroke-linecap="round"/>
<mask id="mask3_8820_1479" style="mask-type:alpha" maskUnits="userSpaceOnUse" x="94" y="45" width="14" height="14">
<path d="M107.831 51.6563C107.831 55.3001 104.877 58.254 101.233 58.254C97.5892 58.254 94.6353 55.3001 94.6353 51.6563C94.6353 48.0125 97.5892 45.0586 101.233 45.0586C104.877 45.0586 107.831 48.0125 107.831 51.6563Z" fill="#FF0000"/>
</mask>
<g mask="url(#mask3_8820_1479)">
<path d="M107.831 51.6563C107.831 55.3001 104.877 58.254 101.233 58.254C97.5892 58.254 94.6353 55.3001 94.6353 51.6563C94.6353 48.0125 97.5892 45.0586 101.233 45.0586C104.877 45.0586 107.831 48.0125 107.831 51.6563Z" fill="#A6A4E8"/>
<path d="M99.0154 47.9021C99.057 47.8038 98.4784 47.9862 98.4291 48.0095C98.1427 48.1454 97.9219 48.3468 97.7985 48.644C97.6791 48.9316 97.6581 49.2506 97.6653 49.562C97.6872 50.5202 98.4108 51.7282 97.7249 52.5826C97.3706 53.0239 96.7498 53.133 96.2812 53.4502C95.3888 54.0545 95.2084 55.3988 95.7255 56.3443C96.2427 57.2897 97.2987 57.848 98.3647 58.0062C99.4308 58.1644 100.516 57.9749 101.567 57.737C102.298 57.5718 103.044 57.3724 103.639 56.9176C105.041 55.8455 104.388 54.5024 103.744 53.2468C103.332 52.442 104.071 52.063 104.394 51.0641C104.975 49.2668 104.143 47.5224 102.554 46.8334C99.951 45.7047 99.0207 47.8897 99.0154 47.9021Z" fill="#5B4852"/>
<path d="M106.372 58.2536H96.0942C96.0942 58.2536 96.5736 56.4036 97.2554 55.3076C97.9372 54.2109 100.44 53.8379 100.44 53.8379L101.233 53.9706L102.026 53.8379C102.026 53.8379 104.529 54.2109 105.211 55.3076C105.893 56.4036 106.372 58.2536 106.372 58.2536Z" fill="url(#paint1_linear_8820_1479)"/>
<path d="M98.9436 54.2047C100.147 55.9249 102.424 55.7056 103.523 54.2047C103.523 54.2047 101.317 53.1773 98.9436 54.2047Z" fill="#F1B69A"/>
<path d="M101.214 54.8167C100.784 54.8167 100.435 54.4682 100.435 54.0382V52.5508H101.992V54.0382C101.992 54.4682 101.644 54.8167 101.214 54.8167Z" fill="#F1B69A"/>
<path d="M101.993 52.3789V53.2922C101.993 53.2922 101.731 53.7467 101.214 53.7467C100.799 53.7467 100.436 53.3526 100.436 53.3526V52.3789H101.993Z" fill="#150A08"/>
<path d="M99.0356 50.7809C98.6147 50.1413 98.1262 50.5521 98.1262 51.0025C98.1262 51.6545 98.8335 52.2162 99.2377 51.7481C99.6418 51.2801 99.0356 50.7809 99.0356 50.7809Z" fill="#F1B69A"/>
<path d="M98.9441 51.0769C98.682 50.5871 98.3199 51.0442 98.4582 51.2256" stroke="#E07E61" stroke-width="0.651772" stroke-miterlimit="10" stroke-linecap="round"/>
<path d="M103.242 50.7809C103.663 50.1413 104.151 50.5521 104.151 51.0025C104.151 51.6545 103.444 52.2162 103.04 51.7481C102.635 51.2801 103.242 50.7809 103.242 50.7809Z" fill="#F1B69A"/>
<path d="M103.333 51.0769C103.595 50.5871 103.957 51.0442 103.819 51.2256" stroke="#E07E61" stroke-width="0.651772" stroke-miterlimit="10" stroke-linecap="round"/>
<path d="M101.137 53.292C99.4728 53.2914 98.489 51.4733 98.878 49.6066C99.1983 48.0684 103.079 48.0689 103.399 49.6066C103.788 51.4733 102.801 53.2927 101.137 53.292Z" fill="#F1B69A"/>
<g style="mix-blend-mode:multiply" opacity="0.5">
<path d="M100.916 51.4233C101.087 51.505 101.473 51.3238 101.481 51.4233C101.489 51.5228 101.276 51.6108 101.199 51.6108C101.121 51.6108 100.916 51.4233 100.916 51.4233Z" fill="#F1B69A"/>
</g>
<path d="M100.921 50.9219C100.678 51.4467 101.041 51.5487 101.138 51.5613" stroke="#E07E61" stroke-width="0.651772" stroke-miterlimit="10" stroke-linecap="round"/>
<path d="M100.481 49.4916C100.377 49.2595 99.7677 49.3655 99.6816 49.5308C99.5954 49.6962 99.8804 49.7426 100.092 49.7322C100.304 49.7218 100.547 49.6394 100.481 49.4916Z" fill="#5B4852"/>
<path d="M101.796 49.4916C101.9 49.2595 102.51 49.3655 102.596 49.5308C102.682 49.6962 102.397 49.7426 102.185 49.7322C101.974 49.7218 101.73 49.6394 101.796 49.4916Z" fill="#150A08"/>
<path d="M100.041 50.3861C100.041 50.4785 100.116 50.5535 100.208 50.5535C100.301 50.5535 100.376 50.4785 100.376 50.3861C100.376 50.2936 100.301 50.2188 100.208 50.2188C100.116 50.2188 100.041 50.2936 100.041 50.3861Z" fill="#150A08"/>
<path d="M102.236 50.3861C102.236 50.4785 102.162 50.5535 102.069 50.5535C101.976 50.5535 101.902 50.4785 101.902 50.3861C101.902 50.2936 101.976 50.2188 102.069 50.2188C102.162 50.2188 102.236 50.2936 102.236 50.3861Z" fill="#150A08"/>
<path d="M100.516 51.8379C101.153 51.9064 101.578 51.8363 101.881 51.8466C101.881 51.8466 101.499 52.3854 101.051 52.2782C100.602 52.1711 100.516 51.8379 100.516 51.8379Z" fill="white"/>
<g style="mix-blend-mode:multiply" opacity="0.5">
<path d="M100.956 52.4343C101.189 52.435 101.523 52.3137 101.574 52.4343C101.626 52.5549 101.342 52.7959 101.165 52.7787C100.989 52.7616 100.69 52.4337 100.956 52.4343Z" fill="#F1B69A"/>
</g>
<path d="M100.041 47.9666C100.038 49.534 103.015 50.2869 103.592 49.9164C104.17 49.5459 103.72 48.216 102.199 47.8558C100.679 47.4956 100.042 47.4999 100.041 47.9666Z" fill="#5B4852"/>
<path d="M100.047 47.9543C100.426 48.7116 99.3837 50.3832 98.7913 50.2725C98.199 50.1618 98.1991 49.507 98.6611 48.7307C99.1231 47.9544 99.8669 47.595 100.047 47.9543Z" fill="#5B4852"/>
</g>
<mask id="mask4_8820_1479" style="mask-type:alpha" maskUnits="userSpaceOnUse" x="94" y="68" width="14" height="14">
<path d="M107.83 75.3614C107.83 79.0051 104.876 81.959 101.232 81.959C97.5882 81.959 94.6343 79.0051 94.6343 75.3614C94.6343 71.7176 97.5882 68.7637 101.232 68.7637C104.876 68.7637 107.83 71.7176 107.83 75.3614Z" fill="#FF0000"/>
</mask>
<g mask="url(#mask4_8820_1479)">
<path d="M107.83 75.3614C107.83 79.0051 104.876 81.959 101.232 81.959C97.5882 81.959 94.6343 79.0051 94.6343 75.3614C94.6343 71.7176 97.5882 68.7637 101.232 68.7637C104.876 68.7637 107.83 71.7176 107.83 75.3614Z" fill="#A6A4E8"/>
<path d="M103.725 74.1568C104.633 72.5219 103.914 71.5846 103.333 71.8913C103.333 71.8913 103.245 70.8775 101.914 70.2663C100.374 69.559 98.3856 70.1105 97.998 71.1757C97.6402 72.1588 98.2792 72.6325 98.2792 72.6325C98.2792 72.6325 97.8836 73.339 98.5602 74.3959C99.2369 75.4529 103.319 74.8889 103.725 74.1568Z" fill="#5B4852"/>
<path d="M106.98 82.0959H95.4858C95.4858 82.0959 95.8345 80.1681 96.6245 79.0583C97.4145 77.9479 100.346 77.543 100.346 77.543L101.233 77.6798L102.12 77.543C102.12 77.543 105.053 77.9479 105.843 79.0583C106.633 80.1681 106.98 82.0959 106.98 82.0959Z" fill="url(#paint2_linear_8820_1479)"/>
<path d="M100.346 77.543L99.2107 77.7559C99.2107 77.7559 99.4724 79.0401 100.51 79.6819L101.215 78.8183V77.8919L100.346 77.543Z" fill="white"/>
<path d="M102.04 77.543L103.176 77.7559C103.176 77.7559 102.914 79.0401 101.876 79.6819L101.171 78.8183V77.8919L102.04 77.543Z" fill="white"/>
<path d="M101.213 78.5218C100.783 78.5218 100.434 78.1733 100.434 77.7432V76.2559H101.991V77.7432C101.991 78.1733 101.643 78.5218 101.213 78.5218Z" fill="#F1B69A"/>
<path d="M101.992 76.084V76.9972C101.992 76.9972 101.73 77.4518 101.213 77.4518C100.798 77.4518 100.435 77.0577 100.435 77.0577V76.084H101.992Z" fill="#150A08"/>
<path d="M99.0349 74.486C98.614 73.8464 98.1255 74.2572 98.1255 74.7076C98.1255 75.3595 98.8328 75.9213 99.2369 75.4532C99.6411 74.9852 99.0349 74.486 99.0349 74.486Z" fill="#F1B69A"/>
<path d="M98.9429 74.78C98.6808 74.2902 98.3187 74.7473 98.457 74.9288" stroke="#E07E61" stroke-width="0.651772" stroke-miterlimit="10" stroke-linecap="round"/>
<path d="M103.241 74.486C103.662 73.8464 104.15 74.2572 104.15 74.7076C104.15 75.3595 103.443 75.9213 103.039 75.4532C102.635 74.9852 103.241 74.486 103.241 74.486Z" fill="#F1B69A"/>
<path d="M103.333 74.78C103.595 74.2902 103.957 74.7473 103.819 74.9288" stroke="#E07E61" stroke-width="0.651772" stroke-miterlimit="10" stroke-linecap="round"/>
<path d="M101.136 76.9971C99.4721 76.9965 98.4882 75.1784 98.8772 73.3116C99.1976 71.7735 103.078 71.774 103.398 73.3116C103.787 75.1784 102.8 76.9978 101.136 76.9971Z" fill="#F1B69A"/>
<g style="mix-blend-mode:multiply" opacity="0.5">
<path d="M100.915 75.1284C101.087 75.2101 101.472 75.0289 101.48 75.1284C101.488 75.2279 101.276 75.3159 101.198 75.3159C101.12 75.3159 100.915 75.1284 100.915 75.1284Z" fill="#F1B69A"/>
</g>
<path d="M100.92 74.627C100.678 75.1517 101.04 75.2537 101.138 75.2664" stroke="#E07E61" stroke-width="0.651772" stroke-miterlimit="10" stroke-linecap="round"/>
<path d="M100.557 75.5522C101.199 75.6755 101.709 75.5727 101.914 75.4082" stroke="#150A08" stroke-width="0.651772" stroke-miterlimit="10" stroke-linecap="round"/>
<path d="M100.48 73.1967C100.376 72.9646 99.7667 73.0706 99.6806 73.2359C99.5944 73.4013 99.8794 73.4477 100.091 73.4373C100.303 73.4268 100.546 73.3445 100.48 73.1967Z" fill="#150A08"/>
<path d="M101.796 73.1967C101.9 72.9646 102.509 73.0706 102.595 73.2359C102.681 73.4013 102.396 73.4477 102.185 73.4373C101.973 73.4268 101.73 73.3445 101.796 73.1967Z" fill="#150A08"/>
<g style="mix-blend-mode:multiply" opacity="0.5">
<path d="M100.988 75.8679C101.221 75.8686 101.555 75.7473 101.606 75.8679C101.658 75.9885 101.374 76.2295 101.197 76.2123C101.021 76.195 100.722 75.8672 100.988 75.8679Z" fill="#F1B69A"/>
</g>
<path d="M100.04 74.0912C100.04 74.1837 100.115 74.2586 100.207 74.2586C100.3 74.2586 100.375 74.1837 100.375 74.0912C100.375 73.9987 100.3 73.9238 100.207 73.9238C100.115 73.9238 100.04 73.9987 100.04 74.0912Z" fill="#150A08"/>
<path d="M102.236 74.0912C102.236 74.1837 102.161 74.2586 102.068 74.2586C101.976 74.2586 101.901 74.1837 101.901 74.0912C101.901 73.9987 101.976 73.9238 102.068 73.9238C102.161 73.9238 102.236 73.9987 102.236 74.0912Z" fill="#150A08"/>
<path d="M102.611 72.158C102.18 73.1252 101.236 72.5746 101.236 72.5746C101.236 72.5746 100.617 73.1545 99.6649 73.062C98.7133 72.9695 98.2174 71.8284 99.3759 71.3457C100.535 70.863 103.218 70.7979 102.611 72.158Z" fill="#5B4852"/>
</g>
<mask id="mask5_8820_1479" style="mask-type:alpha" maskUnits="userSpaceOnUse" x="74" y="56" width="14" height="14">
<path d="M80.8831 56.3984C84.5244 56.3984 87.4808 59.3549 87.4808 62.9961C87.4808 66.6374 84.5244 69.5938 80.8831 69.5938C77.2418 69.5938 74.2854 66.6374 74.2854 62.9961C74.2854 59.3549 77.2418 56.3984 80.8831 56.3984Z" fill="#FF0000"/>
</mask>
<g mask="url(#mask5_8820_1479)">
<path d="M80.9117 56.3613C84.5529 56.3613 87.5094 59.3178 87.5094 62.959C87.5094 66.6003 84.5529 69.5567 80.9117 69.5567C77.2704 69.5567 74.314 66.6003 74.314 62.959C74.314 59.3178 77.2704 56.3613 80.9117 56.3613Z" fill="#A6A4E8"/>
<path d="M81.9377 58.6581C81.6878 57.3827 83.0959 56.608 83.9408 57.5214C84.7857 58.4348 84.1556 59.1203 83.3017 59.2047C82.4479 59.2892 82.1537 58.6257 82.1537 58.6257L81.9377 58.6581Z" fill="#5B4852"/>
<path d="M81.3259 58.6069C81.5613 57.8818 82.8094 58.4717 83.1095 58.9583C83.4099 59.445 83.2708 60.1524 83.2708 60.1524L81.3259 58.6069Z" fill="#7B2B1A"/>
<path d="M78.0863 61.7922C77.7088 59.212 79.5143 58.2748 81.0846 58.3095C82.6548 58.3442 83.3972 59.5937 83.3972 59.5937C83.3972 59.5937 84.5206 61.2609 83.1451 62.7905C81.7697 64.3202 78.0863 61.7922 78.0863 61.7922Z" fill="#5B4852"/>
<path d="M86.0506 69.5563H75.7732C75.7732 69.5563 76.2526 67.7063 76.9344 66.6103C77.6162 65.5137 80.1192 65.1406 80.1192 65.1406L80.9119 65.2734L81.7047 65.1406C81.7047 65.1406 84.2084 65.5137 84.8902 66.6103C85.572 67.7063 86.0506 69.5563 86.0506 69.5563Z" fill="url(#paint3_linear_8820_1479)"/>
<path d="M78.1589 65.7C79.1251 67.6902 82.0595 67.8768 83.6646 65.7C83.6646 65.7 81.3244 64.2041 78.1589 65.7Z" fill="white"/>
<path d="M80.8927 66.1194C80.4626 66.1194 80.114 65.7709 80.114 65.3409V63.8535H81.6713V65.3409C81.6713 65.7709 81.3227 66.1194 80.8927 66.1194Z" fill="#F1B69A"/>
<path d="M81.6713 63.6816V64.5949C81.6713 64.5949 81.4098 65.0495 80.8925 65.0495C80.477 65.0495 80.114 64.6553 80.114 64.6553V63.6816H81.6713Z" fill="#150A08"/>
<path d="M78.7144 62.0837C78.2934 61.4441 77.8049 61.8549 77.8049 62.3052C77.8049 62.9572 78.5122 63.5189 78.9164 63.0509C79.3206 62.5828 78.7144 62.0837 78.7144 62.0837Z" fill="#F1B69A"/>
<path d="M78.6223 62.3797C78.3602 61.8898 77.9982 62.3469 78.1364 62.5284" stroke="#E07E61" stroke-width="0.651773" stroke-miterlimit="10" stroke-linecap="round"/>
<path d="M82.9198 62.0837C83.3409 61.4441 83.8293 61.8549 83.8293 62.3052C83.8293 62.9572 83.122 63.5189 82.7178 63.0509C82.3136 62.5828 82.9198 62.0837 82.9198 62.0837Z" fill="#F1B69A"/>
<path d="M83.0122 62.3797C83.2743 61.8898 83.6363 62.3469 83.4981 62.5284" stroke="#E07E61" stroke-width="0.651773" stroke-miterlimit="10" stroke-linecap="round"/>
<path d="M80.8148 64.5948C79.151 64.5941 78.1672 62.7761 78.5562 60.9093C78.8766 59.3711 82.7569 59.3716 83.0773 60.9093C83.4663 62.7761 82.4794 64.5954 80.8148 64.5948Z" fill="#F1B69A"/>
<g style="mix-blend-mode:multiply" opacity="0.5">
<path d="M80.5942 62.726C80.7655 62.8077 81.1512 62.6265 81.1593 62.726C81.1673 62.8255 80.9546 62.9135 80.8768 62.9135C80.7989 62.9135 80.5942 62.726 80.5942 62.726Z" fill="#F1B69A"/>
</g>
<path d="M80.6 62.2246C80.3572 62.7494 80.7201 62.8514 80.8174 62.8641" stroke="#E07E61" stroke-width="0.651773" stroke-miterlimit="10" stroke-linecap="round"/>
<path d="M80.1591 60.7944C80.0552 60.5623 79.4459 60.6682 79.3598 60.8336C79.2736 60.9989 79.5588 61.0454 79.7703 61.0349C79.9819 61.0245 80.2254 60.9422 80.1591 60.7944Z" fill="#5B4852"/>
<path d="M81.475 60.7944C81.5789 60.5623 82.1882 60.6682 82.2743 60.8336C82.3605 60.9989 82.0755 61.0454 81.8638 61.0349C81.6522 61.0245 81.4087 60.9422 81.475 60.7944Z" fill="#5B4852"/>
<path d="M79.719 61.6889C79.719 61.7814 79.794 61.8562 79.8864 61.8562C79.9789 61.8562 80.0537 61.7814 80.0537 61.6889C80.0537 61.5963 79.9789 61.5215 79.8864 61.5215C79.794 61.5215 79.719 61.5963 79.719 61.6889Z" fill="#150A08"/>
<path d="M81.9156 61.6889C81.9156 61.7814 81.8407 61.8562 81.7482 61.8562C81.6557 61.8562 81.5808 61.7814 81.5808 61.6889C81.5808 61.5963 81.6557 61.5215 81.7482 61.5215C81.8407 61.5215 81.9156 61.5963 81.9156 61.6889Z" fill="#150A08"/>
<path d="M80.2336 63.1928C80.876 63.3162 81.3853 63.2134 81.5909 63.0488" stroke="#150A08" stroke-width="0.651773" stroke-miterlimit="10" stroke-linecap="round"/>
<g style="mix-blend-mode:multiply" opacity="0.5">
<path d="M80.6642 63.5085C80.8971 63.5092 81.2311 63.3879 81.2828 63.5085C81.3344 63.6291 81.0502 63.8702 80.8738 63.8529C80.6974 63.8358 80.3982 63.5079 80.6642 63.5085Z" fill="#F1B69A"/>
</g>
<path d="M81.1597 59.3088C78.3953 60.2189 78.8356 62.8215 79.3443 64.3661C79.3443 64.3661 77.5695 61.8154 78.3642 60.2189C79.1588 58.6224 81.1597 59.3088 81.1597 59.3088Z" fill="#5B4852"/>
</g>
<path d="M28.0829 47.7188C31.7252 47.7188 34.6824 50.676 34.6824 54.3183C34.6824 57.9605 31.7252 60.9178 28.0829 60.9178C24.4406 60.9178 21.4834 57.9605 21.4834 54.3183C21.4834 50.676 24.4406 47.7188 28.0829 47.7188Z" fill="#A6A4E8"/>
<path d="M32.2928 52.9648L29.0441 50.0772C28.9384 49.9811 28.7859 49.9574 28.6563 50.0166C28.5265 50.0744 28.4434 50.2039 28.4434 50.3465V51.5041C27.3592 51.7947 23.751 53.1497 23.751 58.2876C23.751 58.4609 23.8736 58.6092 24.0441 58.6414C24.2133 58.6738 24.3826 58.5822 24.4476 58.4216C25.5178 55.7454 27.6031 55.187 28.4434 55.0714V56.1218C28.4434 56.2644 28.5265 56.394 28.6563 56.4518C28.7859 56.5095 28.9384 56.4857 29.0441 56.3912L32.2928 53.5035C32.3703 53.4359 32.414 53.3371 32.414 53.2342C32.414 53.1312 32.3703 53.0324 32.2928 52.9648Z" fill="#ECE9F4"/>
</g>
<path d="M66.0961 64.2171C68.7113 64.2171 70.831 61.2039 70.831 57.4863C70.831 53.7672 68.7113 50.7539 66.0961 50.7539C63.4798 50.7539 61.3601 53.7672 61.3601 57.4863C61.3601 61.2039 63.4798 64.2171 66.0961 64.2171Z" fill="#7D67CF"/>
<g opacity="0.1">
<path d="M66.0951 63.2751C68.344 63.2751 70.1668 60.6839 70.1668 57.487C70.1668 54.2885 68.344 51.6973 66.0951 51.6973C63.8451 51.6973 62.0222 54.2885 62.0222 57.487C62.0222 60.6839 63.8451 63.2751 66.0951 63.2751Z" fill="#318F36"/>
</g>
<path d="M65.8994 60.902V60.0595C65.6003 60.0519 65.2896 59.9016 65.1091 59.6921L65.233 59.1335C65.4476 59.3627 65.7082 59.4887 65.9773 59.4918C66.3436 59.4918 66.5913 59.1502 66.5913 58.6751C66.5913 58.2151 66.3906 57.9328 66.0083 57.6823C65.4807 57.3483 65.1561 56.9643 65.1561 56.2387C65.1561 55.5465 65.4605 55.0212 65.9357 54.8952V54.0527H66.256V54.8618C66.4952 54.8664 66.728 54.9681 66.9277 55.1533L66.7985 55.7043C66.6073 55.5176 66.3799 55.4189 66.1471 55.4205C65.7499 55.4205 65.6003 55.8045 65.6003 56.1385C65.6003 56.5726 65.7915 56.7897 66.24 57.0903C66.7729 57.4394 67.0409 57.8736 67.0409 58.6159C67.0409 59.2747 66.7568 59.8925 66.225 60.0337V60.902H65.8994Z" fill="white"/>
<defs>
<linearGradient id="paint0_linear_8820_1479" x1="11.0416" y1="142.349" x2="-6.91674" y2="125.18" gradientUnits="userSpaceOnUse">
<stop stop-color="#EEF4FB"/>
<stop offset="0.45" stop-color="#DFEBF7"/>
<stop offset="1" stop-color="#CFE1F3"/>
</linearGradient>
<linearGradient id="paint1_linear_8820_1479" x1="95.9647" y1="55.9666" x2="106.242" y2="55.9666" gradientUnits="userSpaceOnUse">
<stop stop-color="#8A74DC"/>
<stop offset="0.41" stop-color="#634EB5"/>
<stop offset="1" stop-color="#3D278D"/>
</linearGradient>
<linearGradient id="paint2_linear_8820_1479" x1="95.437" y1="79.7267" x2="106.932" y2="79.7267" gradientUnits="userSpaceOnUse">
<stop stop-color="#8A74DC"/>
<stop offset="0.41" stop-color="#634EB5"/>
<stop offset="1" stop-color="#3D278D"/>
</linearGradient>
<linearGradient id="paint3_linear_8820_1479" x1="75.7704" y1="67.3181" x2="86.0478" y2="67.3181" gradientUnits="userSpaceOnUse">
<stop stop-color="#8A74DC"/>
<stop offset="0.41" stop-color="#634EB5"/>
<stop offset="1" stop-color="#3D278D"/>
</linearGradient>
</defs>
</svg>
