<svg width="80" height="80" viewBox="0 0 80 80" fill="none" xmlns="http://www.w3.org/2000/svg">
<path d="M62.3998 49.1997C63.5665 46.3663 64.1998 43.333 64.1998 39.9997C64.1998 37.5997 63.8332 35.2997 63.1998 33.1663C61.0332 33.6663 58.7665 33.933 56.3998 33.933C51.5531 33.9382 46.7761 32.7781 42.4716 30.5504C38.1671 28.3227 34.4613 25.0928 31.6665 21.133C28.6768 28.3669 23.0369 34.1857 15.8998 37.3997C15.7665 38.233 15.7665 39.133 15.7665 39.9997C15.7665 43.182 16.3933 46.3332 17.6112 49.2734C18.829 52.2135 20.614 54.8849 22.8643 57.1352C27.4089 61.6798 33.5728 64.233 39.9998 64.233C43.4998 64.233 46.8665 63.4663 49.8998 62.0997C51.7998 65.733 52.6665 67.533 52.5998 67.533C47.1332 69.3663 42.8998 70.2663 39.9998 70.2663C31.9332 70.2663 24.2332 67.0997 18.5665 61.3997C15.1198 57.9636 12.5577 53.743 11.0998 49.0997H6.6665V33.933H10.2998C11.4006 28.5747 13.9315 23.6144 17.6238 19.5783C21.3161 15.5422 26.0322 12.581 31.2716 11.0089C36.511 9.43669 42.0783 9.31223 47.3827 10.6487C52.6871 11.9851 57.5308 14.7326 61.3998 18.5997C65.6006 22.7838 68.4659 28.12 69.6332 33.933H73.3332V49.0997H73.1332L61.2665 59.9997L43.5998 57.9997V52.433H59.6998L62.3998 49.1997ZM30.8998 39.233C31.8998 39.233 32.8665 39.633 33.5665 40.3663C34.27 41.0756 34.6647 42.034 34.6647 43.033C34.6647 44.0319 34.27 44.9904 33.5665 45.6997C32.8665 46.3997 31.8998 46.7997 30.8998 46.7997C28.7998 46.7997 27.0998 45.133 27.0998 43.033C27.0998 40.933 28.7998 39.233 30.8998 39.233ZM49.0665 39.233C51.1665 39.233 52.8332 40.933 52.8332 43.033C52.8332 45.133 51.1665 46.7997 49.0665 46.7997C46.9665 46.7997 45.2665 45.133 45.2665 43.033C45.2665 42.0252 45.6669 41.0586 46.3795 40.346C47.0921 39.6333 48.0587 39.233 49.0665 39.233Z" fill="white"/>
</svg>
