<svg width="108" height="105" viewBox="0 0 108 105" fill="none" xmlns="http://www.w3.org/2000/svg">
<mask id="mask0_8820_1982" style="mask-type:luminance" maskUnits="userSpaceOnUse" x="0" y="0" width="108" height="105">
<path d="M107.597 0H0V104.167H107.597V0Z" fill="white"/>
</mask>
<g mask="url(#mask0_8820_1982)">
<mask id="mask1_8820_1982" style="mask-type:luminance" maskUnits="userSpaceOnUse" x="-6" y="11" width="120" height="116">
<path d="M-5.57617 11.4336H113.137V126.363H-5.57617V11.4336Z" fill="white"/>
</mask>
<g mask="url(#mask1_8820_1982)">
<path d="M81.3737 81.4051C83.999 75.6273 84.8342 68.9784 83.341 62.3056C79.6882 45.9823 63.4857 35.6971 47.1516 39.3328C30.8176 42.9686 20.5373 59.1487 24.19 75.4719C24.6108 77.3525 25.1982 79.1529 25.9331 80.8611" stroke="#ECF6FD" stroke-width="2.20662" stroke-miterlimit="10"/>
<path d="M24.1602 67.5908C24.2614 68.0432 23.9766 68.4915 23.5239 68.5923C23.0712 68.693 22.6224 68.4081 22.5211 67.9557C22.4199 67.5033 22.7047 67.0551 23.1574 66.9543C23.6101 66.8535 24.059 67.1385 24.1602 67.5908Z" fill="#F5B74E"/>
</g>
<mask id="mask2_8820_1982" style="mask-type:luminance" maskUnits="userSpaceOnUse" x="-6" y="11" width="120" height="116">
<path d="M-5.57617 11.4336H113.137V126.363H-5.57617V11.4336Z" fill="white"/>
</mask>
<g mask="url(#mask2_8820_1982)">
<path d="M86.8813 80.4532C87.1605 79.6548 87.413 78.8407 87.6375 78.0115C92.7007 59.316 81.6401 40.0731 62.9329 35.0313C44.2257 29.9895 24.956 41.0581 19.8929 59.7536C17.9988 66.7476 18.3612 73.8182 20.5363 80.1933" stroke="#ECF6FD" stroke-width="2.20662" stroke-miterlimit="10"/>
<path d="M20.4525 60.4677C20.3575 60.8184 19.9961 61.026 19.6452 60.9313C19.2943 60.8367 19.0867 60.4758 19.1816 60.1251C19.2765 59.7745 19.6381 59.5669 19.989 59.6615C20.3399 59.7562 20.5474 60.1172 20.4525 60.4677Z" fill="#3D3F41"/>
<path d="M89.5395 68.1694C89.382 68.6608 88.8558 68.9319 88.3641 68.775C87.8725 68.618 87.6016 68.0925 87.7591 67.6011C87.9166 67.1097 88.4429 66.8386 88.9345 66.9955C89.4262 67.1524 89.6971 67.678 89.5395 68.1694Z" fill="#383838"/>
<path d="M46.0823 35.2476C46.1111 36.9919 44.7186 38.4291 42.9721 38.4578C41.2255 38.4865 39.7862 37.0958 39.7573 35.3516C39.7285 33.6073 41.121 32.1701 42.8676 32.1414C44.6141 32.1127 46.0534 33.5034 46.0823 35.2476Z" fill="#484949"/>
<path d="M41.9129 35.929L42.5026 35.3671L43.0953 35.9096L43.6696 35.3479" stroke="white" stroke-width="0.746356" stroke-linecap="round" stroke-linejoin="round"/>
<path d="M42.8951 37.2466C42.8951 37.2466 42.4385 37.3552 41.9129 36.956C41.0827 36.3254 41.1718 35.7554 41.1935 35.4493C41.261 34.4967 42.8087 33.1991 42.8087 33.1991C42.8087 33.1991 44.3986 34.4451 44.4976 35.395C44.5294 35.7002 44.6372 36.2669 43.8283 36.9245C43.3162 37.3408 42.8564 37.2473 42.8564 37.2473" stroke="white" stroke-width="0.746356" stroke-linecap="round" stroke-linejoin="round"/>
</g>
<mask id="mask3_8820_1982" style="mask-type:luminance" maskUnits="userSpaceOnUse" x="-6" y="11" width="120" height="116">
<path d="M-5.57617 11.4336H113.137V126.363H-5.57617V11.4336Z" fill="white"/>
</mask>
<g mask="url(#mask3_8820_1982)">
<path d="M15.4118 81.1748C12.6025 72.4447 12.7519 62.7106 16.5228 53.5619C24.9935 33.0112 48.5308 23.1964 69.0948 31.6398C88.5962 39.647 98.4204 61.1986 92.1596 80.9312" stroke="#ECF6FD" stroke-width="2.20662" stroke-miterlimit="10"/>
<path d="M90.6025 50.8875C90.5259 51.4787 89.9841 51.8961 89.3924 51.8198C88.8006 51.7436 88.3829 51.2025 88.4595 50.6114C88.5361 50.0202 89.0778 49.6028 89.6696 49.6791C90.2614 49.7554 90.6791 50.2964 90.6025 50.8875Z" stroke="#4A4A4A" stroke-width="1.10331" stroke-miterlimit="10"/>
<path d="M94.6936 66.396C94.6306 66.8819 94.1853 67.2251 93.6988 67.1624C93.2124 67.0997 92.869 66.6549 92.9319 66.169C92.9949 65.6831 93.4403 65.3399 93.9267 65.4026C94.4132 65.4653 94.7565 65.9101 94.6936 66.396Z" fill="#4A4A4A"/>
<path d="M95.5494 66.583C95.4235 67.555 94.5328 68.2413 93.56 68.1159C92.5872 67.9906 91.9005 67.1011 92.0264 66.129C92.1523 65.157 93.0431 64.4708 94.0159 64.5962C94.9887 64.7215 95.6753 65.611 95.5494 66.583Z" stroke="#4A4A4A" stroke-width="1.10331" stroke-miterlimit="10"/>
<path d="M21.0023 46.7803C20.9316 47.3261 20.4314 47.7114 19.8851 47.641C19.3387 47.5706 18.9532 47.0711 19.0239 46.5253C19.0946 45.9795 19.5947 45.5942 20.1411 45.6646C20.6874 45.735 21.073 46.2345 21.0023 46.7803Z" stroke="#4A4A4A" stroke-width="1.10331" stroke-miterlimit="10"/>
</g>
<mask id="mask4_8820_1982" style="mask-type:luminance" maskUnits="userSpaceOnUse" x="-6" y="11" width="120" height="116">
<path d="M-5.57617 11.4336H113.137V126.363H-5.57617V11.4336Z" fill="white"/>
</mask>
<g mask="url(#mask4_8820_1982)">
<path d="M96.7759 81.1906C99.1446 72.9308 99.1598 63.899 96.3047 55.1071C88.673 31.6053 63.4226 18.7167 39.9066 26.3195C16.7932 33.792 3.95798 58.279 10.7715 81.4304" stroke="#ECF6FD" stroke-width="2.20662" stroke-miterlimit="10"/>
<path d="M40.1695 26.2543C40.5151 27.3184 39.9322 28.4598 38.8674 28.8041C37.8026 29.1483 36.6597 28.5649 36.3141 27.5007C35.9685 26.4366 36.5514 25.2952 37.6162 24.951C38.681 24.6067 39.824 25.1902 40.1695 26.2543Z" fill="#F5B74E"/>
</g>
<mask id="mask5_8820_1982" style="mask-type:luminance" maskUnits="userSpaceOnUse" x="-6" y="11" width="120" height="116">
<path d="M-5.57617 11.4336H113.137V126.363H-5.57617V11.4336Z" fill="white"/>
</mask>
<g mask="url(#mask5_8820_1982)">
<path d="M58.8525 52.541V78.3975" stroke="#2266EB" stroke-width="1.10331" stroke-miterlimit="10" stroke-dasharray="3.31 3.31"/>
<path d="M70.363 66.5977H29.2246" stroke="#2266EB" stroke-width="1.10331" stroke-miterlimit="10" stroke-dasharray="3.31 3.31"/>
</g>
<mask id="mask6_8820_1982" style="mask-type:luminance" maskUnits="userSpaceOnUse" x="-6" y="11" width="120" height="116">
<path d="M-5.57617 11.4336H113.137V126.363H-5.57617V11.4336Z" fill="white"/>
</mask>
<g mask="url(#mask6_8820_1982)">
<path d="M78.6844 75.1149C79.639 71.3053 79.7298 67.2181 78.7854 63.1272C75.595 49.3075 61.7983 40.679 47.9696 43.855C34.141 47.0309 25.517 60.8085 28.7075 74.6282C29.5229 78.1602 31.0311 81.3532 33.0556 84.0966" stroke="#ECF6FD" stroke-width="2.20662" stroke-miterlimit="10"/>
<path d="M59.2457 43.5649C59.35 44.0166 59.0682 44.4668 58.6162 44.5706C58.1642 44.6744 57.7134 44.3925 57.6092 43.9408C57.5049 43.4891 57.7867 43.0389 58.2387 42.9351C58.6907 42.8313 59.1415 43.1132 59.2457 43.5649Z" fill="#F5B74E"/>
</g>
<mask id="mask7_8820_1982" style="mask-type:luminance" maskUnits="userSpaceOnUse" x="-6" y="11" width="120" height="116">
<path d="M-5.57617 11.4336H113.137V126.363H-5.57617V11.4336Z" fill="white"/>
</mask>
<g mask="url(#mask7_8820_1982)">
<path d="M77.163 79.7909H28.0431C27.5139 79.7909 27.085 79.3625 27.085 78.834V46.7283C27.085 46.1998 27.5139 45.7715 28.0431 45.7715H77.163C77.6921 45.7715 78.1211 46.1998 78.1211 46.7283V78.834C78.1211 79.3625 77.6921 79.7909 77.163 79.7909Z" fill="white"/>
<path d="M77.163 79.7909H28.0431C27.5139 79.7909 27.085 79.3625 27.085 78.834V46.7283C27.085 46.1998 27.5139 45.7715 28.0431 45.7715H77.163C77.6921 45.7715 78.1211 46.1998 78.1211 46.7283V78.834C78.1211 79.3625 77.6921 79.7909 77.163 79.7909Z" stroke="#303030" stroke-width="3.30993" stroke-miterlimit="10"/>
<path d="M101.403 81.4703H2.53357C2.46808 81.4703 2.41504 81.4174 2.41504 81.352V80.3645C2.41504 80.2991 2.46808 80.2461 2.53357 80.2461H101.403C101.468 80.2461 101.522 80.2991 101.522 80.3645V81.352C101.522 81.4174 101.468 81.4703 101.403 81.4703Z" fill="#6B6B6B"/>
<path d="M77.1601 45.9121H28.0497C27.5951 45.9121 27.2266 46.2801 27.2266 46.7341V48.1118H77.9832V46.7341C77.9832 46.2801 77.6147 45.9121 77.1601 45.9121Z" fill="#DEEEFC"/>
<path d="M29.8003 54.3514H51.4224V53.2344H29.8003V54.3514Z" fill="#EBEFF8"/>
<path d="M29.6392 59.0327H51.2612V55.4902H29.6392V59.0327Z" fill="#EBEFF8"/>
<path d="M33.5422 47.0741C33.5287 47.3718 33.2758 47.6022 32.9776 47.5886C32.6796 47.5749 32.4489 47.3225 32.4625 47.0248C32.4761 46.727 32.729 46.4967 33.0272 46.5103C33.3252 46.524 33.5559 46.7764 33.5422 47.0741Z" fill="#71BE46"/>
<path d="M31.4988 47.0123C31.4988 47.3104 31.2569 47.552 30.9584 47.552C30.6599 47.552 30.418 47.3104 30.418 47.0123C30.418 46.7143 30.6599 46.4727 30.9584 46.4727C31.2569 46.4727 31.4988 46.7143 31.4988 47.0123Z" fill="#DFC04B"/>
<path d="M29.429 47.0065C29.429 47.3045 29.187 47.5461 28.8886 47.5461C28.5901 47.5461 28.3481 47.3045 28.3481 47.0065C28.3481 46.7084 28.5901 46.4668 28.8886 46.4668C29.187 46.4668 29.429 46.7084 29.429 47.0065Z" fill="#EC645A"/>
<path d="M74.344 68.8984H33.2056" stroke="#494949" stroke-width="1.10331" stroke-miterlimit="10" stroke-dasharray="3.31 3.31"/>
<path d="M53.7812 55.959V81.8155" stroke="#272727" stroke-width="1.10331" stroke-miterlimit="10" stroke-dasharray="3.31 3.31"/>
<path d="M74.2994 54.416C74.2994 54.6349 74.1217 54.8124 73.9025 54.8124C73.6831 54.8124 73.5054 54.6349 73.5054 54.416C73.5054 54.1971 73.6831 54.0195 73.9025 54.0195C74.1217 54.0195 74.2994 54.1971 74.2994 54.416Z" fill="#414141"/>
<path d="M72.8648 54.416C72.8648 54.6349 72.6871 54.8124 72.4679 54.8124C72.2485 54.8124 72.0708 54.6349 72.0708 54.416C72.0708 54.1971 72.2485 54.0195 72.4679 54.0195C72.6871 54.0195 72.8648 54.1971 72.8648 54.416Z" fill="#363636"/>
<path d="M71.4166 54.416C71.4166 54.6349 71.2388 54.8124 71.0196 54.8124C70.8003 54.8124 70.6226 54.6349 70.6226 54.416C70.6226 54.1971 70.8003 54.0195 71.0196 54.0195C71.2388 54.0195 71.4166 54.1971 71.4166 54.416Z" fill="#393899"/>
<path d="M70.0206 54.416C70.0206 54.6349 69.8428 54.8124 69.6236 54.8124C69.4043 54.8124 69.2266 54.6349 69.2266 54.416C69.2266 54.1971 69.4043 54.0195 69.6236 54.0195C69.8428 54.0195 70.0206 54.1971 70.0206 54.416Z" fill="#F5B74E"/>
<path d="M68.5543 54.416C68.5543 54.6349 68.3766 54.8124 68.1574 54.8124C67.938 54.8124 67.7603 54.6349 67.7603 54.416C67.7603 54.1971 67.938 54.0195 68.1574 54.0195C68.3766 54.0195 68.5543 54.1971 68.5543 54.416Z" fill="#F3B63E"/>
<path d="M67.1363 54.416C67.1363 54.6349 66.9585 54.8124 66.7393 54.8124C66.52 54.8124 66.3423 54.6349 66.3423 54.416C66.3423 54.1971 66.52 54.0195 66.7393 54.0195C66.9585 54.0195 67.1363 54.1971 67.1363 54.416Z" fill="#8A67F6"/>
<path d="M65.7066 54.416C65.7066 54.6349 65.5289 54.8124 65.3097 54.8124C65.0904 54.8124 64.9126 54.6349 64.9126 54.416C64.9126 54.1971 65.0904 54.0195 65.3097 54.0195C65.5289 54.0195 65.7066 54.1971 65.7066 54.416Z" fill="#434446"/>
<path d="M74.2947 56.6211C74.2947 56.84 74.1168 57.0175 73.8976 57.0175C73.6783 57.0175 73.5005 56.84 73.5005 56.6211C73.5005 56.4022 73.6783 56.2246 73.8976 56.2246C74.1168 56.2246 74.2947 56.4022 74.2947 56.6211Z" fill="#525252"/>
<path d="M72.8582 56.6211C72.8582 56.84 72.6803 57.0175 72.4611 57.0175C72.2418 57.0175 72.064 56.84 72.064 56.6211C72.064 56.4022 72.2418 56.2246 72.4611 56.2246C72.6803 56.2246 72.8582 56.4022 72.8582 56.6211Z" fill="#8A67F6"/>
<path d="M71.4107 56.6211C71.4107 56.84 71.233 57.0175 71.0138 57.0175C70.7945 57.0175 70.6167 56.84 70.6167 56.6211C70.6167 56.4022 70.7945 56.2246 71.0138 56.2246C71.233 56.2246 71.4107 56.4022 71.4107 56.6211Z" fill="#F3B63E"/>
<path d="M70.0152 56.6211C70.0152 56.84 69.8375 57.0175 69.6183 57.0175C69.399 57.0175 69.2212 56.84 69.2212 56.6211C69.2212 56.4022 69.399 56.2246 69.6183 56.2246C69.8375 56.2246 70.0152 56.4022 70.0152 56.6211Z" fill="#F3B63E"/>
<path d="M68.5499 56.6211C68.5499 56.84 68.3722 57.0175 68.153 57.0175C67.9336 57.0175 67.7559 56.84 67.7559 56.6211C67.7559 56.4022 67.9336 56.2246 68.153 56.2246C68.3722 56.2246 68.5499 56.4022 68.5499 56.6211Z" fill="#393899"/>
<path d="M67.1309 56.6211C67.1309 56.84 66.9532 57.0175 66.734 57.0175C66.5146 57.0175 66.3369 56.84 66.3369 56.6211C66.3369 56.4022 66.5146 56.2246 66.734 56.2246C66.9532 56.2246 67.1309 56.4022 67.1309 56.6211Z" fill="#3F3F3F"/>
<path d="M65.7008 56.6211C65.7008 56.84 65.523 57.0175 65.3037 57.0175C65.0844 57.0175 64.9067 56.84 64.9067 56.6211C64.9067 56.4022 65.0844 56.2246 65.3037 56.2246C65.523 56.2246 65.7008 56.4022 65.7008 56.6211Z" fill="#5A5A5A"/>
<path d="M83.3365 80.2456H21.9027C21.6641 80.2456 21.4707 80.0524 21.4707 79.8142V78.4098C21.4707 78.1716 21.6641 77.9785 21.9027 77.9785H83.3365C83.575 77.9785 83.7685 78.1716 83.7685 78.4098V79.8142C83.7685 80.0524 83.575 80.2456 83.3365 80.2456Z" fill="#131313"/>
<path d="M82.9702 63.1172H73.2759H72.9467C72.9467 63.1172 73.2304 65.2256 71.1758 65.475C71.1758 65.475 69.666 72.6392 78.0436 77.8594L78.2309 77.9615H78.0057L78.193 77.8594C86.5706 72.6392 85.0607 65.475 85.0607 65.475C83.0061 65.2256 83.2899 63.1172 83.2899 63.1172H82.9607H73.2664" fill="#EBEEF8"/>
<path d="M84.2675 63.1953H74.5733H74.2441C74.2441 63.1953 74.5278 65.3037 72.4732 65.5532C72.4732 65.5532 70.9633 72.7174 79.341 77.9375L79.5282 78.0396H79.3031L79.4903 77.9375C87.8679 72.7174 86.3581 65.5532 86.3581 65.5532C84.3035 65.3037 84.5873 63.1953 84.5873 63.1953H84.2581H74.5637" fill="#5AC59D"/>
<path d="M84.2675 63.1953H74.5733H74.2441C74.2441 63.1953 74.5278 65.3037 72.4732 65.5532C72.4732 65.5532 70.9633 72.7174 79.341 77.9375L79.5282 78.0396H79.3031L79.4903 77.9375C87.8679 72.7174 86.3581 65.5532 86.3581 65.5532C84.3035 65.3037 84.5873 63.1953 84.5873 63.1953H84.2581H74.5637" stroke="#4A4A4A" stroke-width="1.10331" stroke-miterlimit="10"/>
<mask id="mask8_8820_1982" style="mask-type:luminance" maskUnits="userSpaceOnUse" x="-6" y="11" width="120" height="116">
<path d="M-5.5752 11.4336H113.138V126.363H-5.5752V11.4336Z" fill="white"/>
</mask>
<g mask="url(#mask8_8820_1982)">
<path d="M83.8842 69.8776C83.8842 72.1346 82.052 73.9642 79.792 73.9642C77.5319 73.9642 75.6997 72.1346 75.6997 69.8776C75.6997 67.6207 77.5319 65.791 79.792 65.791C82.052 65.791 83.8842 67.6207 83.8842 69.8776Z" stroke="white" stroke-width="2.20662" stroke-miterlimit="10"/>
<path d="M84.5241 69.8849C84.5241 70.392 84.1124 70.8031 83.6047 70.8031C83.0968 70.8031 82.6851 70.392 82.6851 69.8849C82.6851 69.3778 83.0968 68.9668 83.6047 68.9668C84.1124 68.9668 84.5241 69.3778 84.5241 69.8849Z" fill="white"/>
<path d="M84.5241 69.8849C84.5241 70.392 84.1124 70.8031 83.6047 70.8031C83.0968 70.8031 82.6851 70.392 82.6851 69.8849C82.6851 69.3778 83.0968 68.9668 83.6047 68.9668C84.1124 68.9668 84.5241 69.3778 84.5241 69.8849Z" stroke="#5AC59D" stroke-width="2.20662" stroke-miterlimit="10"/>
<path d="M76.8229 69.9141C76.8229 70.4213 76.4112 70.8324 75.9034 70.8324C75.3956 70.8324 74.9839 70.4213 74.9839 69.9141C74.9839 69.407 75.3956 68.9961 75.9034 68.9961C76.4112 68.9961 76.8229 69.407 76.8229 69.9141Z" fill="white"/>
<path d="M76.8229 69.9141C76.8229 70.4213 76.4112 70.8324 75.9034 70.8324C75.3956 70.8324 74.9839 70.4213 74.9839 69.9141C74.9839 69.407 75.3956 68.9961 75.9034 68.9961C76.4112 68.9961 76.8229 69.407 76.8229 69.9141Z" stroke="#5AC59D" stroke-width="2.20662" stroke-miterlimit="10"/>
<path d="M79.749 68.1016V71.9784" stroke="white" stroke-width="2.20662" stroke-linecap="round" stroke-linejoin="round"/>
<path d="M78.1772 69.4175L79.7484 67.8984L81.4237 69.4175" stroke="white" stroke-width="2.20662" stroke-linecap="round" stroke-linejoin="round"/>
</g>
</g>
<mask id="mask9_8820_1982" style="mask-type:luminance" maskUnits="userSpaceOnUse" x="-6" y="11" width="120" height="116">
<path d="M-5.57617 11.4336H113.137V126.363H-5.57617V11.4336Z" fill="white"/>
</mask>
<g mask="url(#mask9_8820_1982)">
<path d="M32.5405 64.0801L37.6828 69.7252L42.7003 68.5691C42.7003 68.5691 43.2087 69.1031 43.8698 69.7976" stroke="#62CDF6" stroke-width="2.20662" stroke-miterlimit="10"/>
<path d="M38.3709 69.6082C38.3709 70.0185 38.0378 70.3512 37.6269 70.3512C37.216 70.3512 36.8828 70.0185 36.8828 69.6082C36.8828 69.1979 37.216 68.8652 37.6269 68.8652C38.0378 68.8652 38.3709 69.1979 38.3709 69.6082Z" fill="white"/>
<path d="M38.3709 69.6082C38.3709 70.0185 38.0378 70.3512 37.6269 70.3512C37.216 70.3512 36.8828 70.0185 36.8828 69.6082C36.8828 69.1979 37.216 68.8652 37.6269 68.8652C38.0378 68.8652 38.3709 69.1979 38.3709 69.6082Z" stroke="#62CDF6" stroke-width="2.20662" stroke-miterlimit="10"/>
<path d="M32.8309 63.4403C32.8309 63.8506 32.4978 64.1833 32.0868 64.1833C31.6759 64.1833 31.3428 63.8506 31.3428 63.4403C31.3428 63.03 31.6759 62.6973 32.0868 62.6973C32.4978 62.6973 32.8309 63.03 32.8309 63.4403Z" fill="white"/>
<path d="M32.8309 63.4403C32.8309 63.8506 32.4978 64.1833 32.0868 64.1833C31.6759 64.1833 31.3428 63.8506 31.3428 63.4403C31.3428 63.03 31.6759 62.6973 32.0868 62.6973C32.4978 62.6973 32.8309 63.03 32.8309 63.4403Z" stroke="#62CDF6" stroke-width="2.20662" stroke-miterlimit="10"/>
</g>
</g>
</svg>
