<svg width="80" height="80" viewBox="0 0 80 80" fill="none" xmlns="http://www.w3.org/2000/svg">
<path d="M45 32.5C45 31.837 44.7366 31.2011 44.2678 30.7322C43.7989 30.2634 43.163 30 42.5 30H22.5C21.837 30 21.2011 30.2634 20.7322 30.7322C20.2634 31.2011 20 31.837 20 32.5C20 33.163 20.2634 33.7989 20.7322 34.2678C21.2011 34.7366 21.837 35 22.5 35H42.5C43.163 35 43.7989 34.7366 44.2678 34.2678C44.7366 33.7989 45 33.163 45 32.5ZM41.6667 42.5C41.6667 41.837 41.4033 41.2011 40.9344 40.7322C40.4656 40.2634 39.8297 40 39.1667 40H22.5C21.837 40 21.2011 40.2634 20.7322 40.7322C20.2634 41.2011 20 41.837 20 42.5C20 43.163 20.2634 43.7989 20.7322 44.2678C21.2011 44.7366 21.837 45 22.5 45H39.1667C39.8297 45 40.4656 44.7366 40.9344 44.2678C41.4033 43.7989 41.6667 43.163 41.6667 42.5ZM42.5 50C43.163 50 43.7989 50.2634 44.2678 50.7322C44.7366 51.2011 45 51.837 45 52.5C45 53.163 44.7366 53.7989 44.2678 54.2678C43.7989 54.7366 43.163 55 42.5 55H22.5C21.837 55 21.2011 54.7366 20.7322 54.2678C20.2634 53.7989 20 53.163 20 52.5C20 51.837 20.2634 51.2011 20.7322 50.7322C21.2011 50.2634 21.837 50 22.5 50H42.5Z" fill="white"/>
<path fill-rule="evenodd" clip-rule="evenodd" d="M20 72.4996H63.3333C65.7645 72.4996 68.0961 71.5338 69.8151 69.8147C71.5342 68.0956 72.5 65.7641 72.5 63.3329V44.9996C72.5 44.3365 72.2366 43.7007 71.7678 43.2318C71.2989 42.763 70.663 42.4996 70 42.4996H59.1667V16.4762C59.1667 11.7329 53.8033 8.97292 49.9433 11.7296L49.36 12.1463C48.0826 13.053 46.5544 13.539 44.9879 13.5366C43.4214 13.5342 41.8946 13.0436 40.62 12.1329C38.4921 10.6185 35.9452 9.80469 33.3333 9.80469C30.7215 9.80469 28.1746 10.6185 26.0467 12.1329C24.7721 13.0436 23.2453 13.5342 21.6788 13.5366C20.1123 13.539 18.584 13.053 17.3067 12.1463L16.7233 11.7296C12.8633 8.97292 7.5 11.7296 7.5 16.4762V59.9996C7.5 63.3148 8.81696 66.4942 11.1612 68.8384C13.5054 71.1826 16.6848 72.4996 20 72.4996ZM28.9533 16.1996C30.2332 15.2911 31.7638 14.803 33.3333 14.803C34.9028 14.803 36.4335 15.2911 37.7133 16.1996C39.8357 17.7166 42.3785 18.5336 44.9873 18.5366C47.5961 18.5396 50.1408 17.7284 52.2667 16.2162L52.85 15.7996C52.9745 15.7109 53.121 15.6582 53.2734 15.6473C53.4258 15.6363 53.5783 15.6674 53.7142 15.7372C53.8502 15.8071 53.9643 15.913 54.0441 16.0433C54.1239 16.1737 54.1663 16.3234 54.1667 16.4762V63.3329C54.1667 64.8329 54.5267 66.2496 55.1667 67.4996H20C18.0109 67.4996 16.1032 66.7094 14.6967 65.3029C13.2902 63.8964 12.5 61.9887 12.5 59.9996V16.4762C12.5004 16.3234 12.5428 16.1737 12.6226 16.0433C12.7024 15.913 12.8165 15.8071 12.9524 15.7372C13.0883 15.6674 13.2409 15.6363 13.3933 15.6473C13.5457 15.6582 13.6922 15.7109 13.8167 15.7996L14.4 16.2162C16.5258 17.7284 19.0705 18.5396 21.6793 18.5366C24.2881 18.5336 26.831 17.7166 28.9533 16.1996ZM59.1667 63.3329V47.4996H67.5V63.3329C67.5 64.438 67.061 65.4978 66.2796 66.2792C65.4982 67.0606 64.4384 67.4996 63.3333 67.4996C62.2283 67.4996 61.1685 67.0606 60.3871 66.2792C59.6057 65.4978 59.1667 64.438 59.1667 63.3329Z" fill="white"/>
</svg>
