<svg width="104" height="57" viewBox="0 0 104 57" fill="none" xmlns="http://www.w3.org/2000/svg">
<mask id="mask0_8820_2209" style="mask-type:luminance" maskUnits="userSpaceOnUse" x="15" y="8" width="89" height="48">
<path d="M104 8.05859H15.9885V55.752H104V8.05859Z" fill="white"/>
</mask>
<g mask="url(#mask0_8820_2209)">
<path d="M72.6265 56.2555C73.5803 54.1061 74.9496 52.055 76.9452 50.8112C78.824 49.6402 81.0975 49.2764 83.066 48.2637C83.9728 47.7971 84.8094 47.194 85.5387 46.4812C85.349 48.3803 85.1482 50.3209 84.3431 52.0514C83.7483 53.3299 82.8308 54.4772 82.5171 55.8519" fill="#01527F"/>
<g opacity="0.33">
<path d="M85.139 47.2821C84.4309 48.5704 83.584 49.7426 82.5606 50.7987C81.6154 51.7743 80.5695 52.6419 79.5907 53.5803C79.5121 52.6429 79.3616 51.7131 79.1384 50.7992C79.1045 50.6604 78.8939 50.7316 78.9277 50.8701C79.1543 51.7986 79.3044 52.7431 79.3788 53.696C79.3809 53.7228 79.3957 53.7389 79.4097 53.7549C79.318 53.8448 79.2225 53.9309 79.1323 54.0226C78.5321 54.6321 77.9946 55.3016 77.6082 56.0682C77.5436 56.1962 77.7417 56.2975 77.8061 56.1696C78.5226 54.7482 79.7559 53.7154 80.9203 52.6713C81.1963 52.4238 81.4715 52.1736 81.7428 51.9189C81.7608 51.9241 81.7773 51.9329 81.7993 51.9274C82.4963 51.751 83.2005 51.6058 83.9106 51.4931C84.0506 51.4708 84.0397 51.2486 83.8983 51.2711C83.267 51.3713 82.641 51.5007 82.0196 51.6498C82.7281 50.9693 83.4076 50.2575 83.9999 49.476C84.5009 48.815 84.9378 48.1099 85.337 47.3835C85.4061 47.2577 85.2079 47.1568 85.139 47.2821Z" fill="white"/>
</g>
<path d="M62.8231 55.9081C63.4368 52.1437 65.3161 48.597 68.0864 45.9754C70.1115 44.0591 72.5717 42.6435 74.5634 40.6925C76.8562 38.4466 78.466 35.5125 79.1284 32.372C81.428 37.7089 81.3556 44.018 78.9341 49.3007C77.8222 51.7262 76.239 53.9536 75.5092 56.52" fill="#015E95"/>
<path d="M72.5455 43.2826C72.3263 45.0449 72.4349 46.8376 72.469 48.6079C72.4717 48.7504 72.694 48.7595 72.6912 48.6161C72.6571 46.8458 72.5485 45.0531 72.7677 43.2908C72.7854 43.1488 72.563 43.1414 72.5455 43.2826Z" fill="white"/>
<path d="M74.7094 45.8899C76.1125 45.3465 77.5158 44.8032 78.9189 44.2598C79.0521 44.2082 78.946 44.0126 78.8139 44.0638C77.4107 44.6072 76.0075 45.1504 74.6043 45.6938C74.4712 45.7454 74.5773 45.9411 74.7094 45.8899Z" fill="white"/>
<path d="M70.2634 51.8586C71.6665 51.3152 73.0698 50.7719 74.4729 50.2285C74.606 50.177 74.5 49.9813 74.3678 50.0325C72.9647 50.5759 71.5614 51.1192 70.1583 51.6626C70.0252 51.7141 70.1312 51.9098 70.2634 51.8586Z" fill="white"/>
<path d="M67.8624 47.9279C68.0289 49.757 68.379 51.5616 68.914 53.3188C68.9555 53.4549 69.1725 53.4051 69.1305 53.2677C68.6017 51.5306 68.2493 49.7446 68.0846 47.9361C68.0718 47.7956 67.8494 47.7855 67.8624 47.9279Z" fill="white"/>
<path d="M67.5797 56.2649C68.8056 53.1102 71.232 50.6699 73.2169 47.9951C74.2987 46.5374 75.1773 44.9661 76.0454 43.3757C76.8741 41.8577 77.7009 40.3296 78.3283 38.7148C79.0271 36.9165 79.4268 35.0255 79.385 33.0912C79.3819 32.9488 79.1597 32.9396 79.1628 33.083C79.2007 34.8388 78.8759 36.5607 78.2805 38.2094C77.6907 39.8429 76.8767 41.383 76.0487 42.9057C75.1799 44.5037 74.3169 46.1022 73.2477 47.5779C72.2788 48.9152 71.2034 50.1704 70.1961 51.4781C69.0727 52.9364 68.0375 54.4738 67.3676 56.1979C67.3156 56.3317 67.5281 56.3977 67.5797 56.2649Z" fill="white"/>
<path d="M51.29 55.8903C50.6763 52.1259 48.797 48.5792 46.0267 45.9576C44.0016 44.0413 41.5414 42.6257 39.5497 40.6747C37.2569 38.4288 35.6471 35.4947 34.9847 32.3542C32.6851 37.6911 32.7576 44.0002 35.1791 49.2829C36.2909 51.7084 37.8741 53.9357 38.6039 56.5022" fill="#015E95"/>
<path d="M41.5671 43.2638C41.7863 45.0261 41.6777 46.8188 41.6436 48.5891C41.6408 48.7316 41.4185 48.7407 41.4214 48.5973C41.4555 46.827 41.5641 45.0343 41.3449 43.272C41.3272 43.13 41.5496 43.1226 41.5671 43.2638Z" fill="white"/>
<path d="M39.4029 45.8729C37.9998 45.3295 36.5966 44.7862 35.1934 44.2428C35.0603 44.1913 35.1663 43.9956 35.2985 44.0468C36.7016 44.5902 38.1049 45.1335 39.508 45.6769C39.6412 45.7284 39.5351 45.9241 39.4029 45.8729Z" fill="white"/>
<path d="M43.8507 51.8417C42.4476 51.2983 41.0443 50.755 39.6412 50.2116C39.508 50.16 39.6141 49.9644 39.7462 50.0156C41.1494 50.559 42.5526 51.1023 43.9558 51.6457C44.0889 51.6972 43.9829 51.8929 43.8507 51.8417Z" fill="white"/>
<path d="M46.2493 47.9107C46.0828 49.7398 45.7327 51.5444 45.1977 53.3016C45.1562 53.4377 44.9392 53.3879 44.9812 53.2505C45.51 51.5134 45.8624 49.7274 46.0271 47.9189C46.0399 47.7783 46.2623 47.7683 46.2493 47.9107Z" fill="white"/>
<path d="M46.5321 56.2467C45.3062 53.092 42.8799 50.6516 40.8949 47.9769C39.8131 46.5191 38.9345 44.9478 38.0664 43.3574C37.2378 41.8394 36.411 40.3113 35.7835 38.6966C35.0848 36.8982 34.685 35.0073 34.7269 33.0729C34.73 32.9305 34.9522 32.9213 34.9491 33.0647C34.9111 34.8206 35.2359 36.5424 35.8313 38.1911C36.4212 39.8246 37.2351 41.3647 38.0631 42.8874C38.932 44.4854 39.795 46.084 40.8641 47.5597C41.833 48.897 42.9084 50.1521 43.9158 51.4599C45.0392 52.9182 46.0743 54.4555 46.7443 56.1797C46.7962 56.3134 46.5838 56.3795 46.5321 56.2467Z" fill="white"/>
<path d="M61.6098 46.6584C61.2755 42.8589 59.663 39.1833 57.0936 36.3644C55.2153 34.304 52.8662 32.7108 51.0239 30.6182C48.903 28.2093 47.514 25.1644 47.0851 21.9837C44.398 27.1364 44.005 33.4336 46.0302 38.8805C46.9601 41.3815 48.3747 43.7195 48.9132 46.3329" fill="#015E95"/>
<path d="M52.8439 33.3497C52.9325 35.1233 52.692 36.9031 52.5274 38.6661C52.5141 38.808 52.2918 38.8007 52.3051 38.6579C52.4698 36.8949 52.7103 35.1151 52.6217 33.3415C52.6145 33.1985 52.8368 33.2076 52.8439 33.3497Z" fill="white"/>
<path d="M50.4931 35.7907C49.1339 35.1453 47.7745 34.5 46.4153 33.8546C46.2863 33.7933 46.4065 33.606 46.5345 33.6668C47.8938 34.3123 49.2531 34.9576 50.6124 35.603C50.7414 35.6642 50.6212 35.8515 50.4931 35.7907Z" fill="white"/>
<path d="M54.4878 42.072C53.1285 41.4265 51.7692 40.7812 50.4099 40.1358C50.281 40.0746 50.4012 39.8873 50.5292 39.9481C51.8884 40.5935 53.2478 41.2388 54.607 41.8842C54.736 41.9454 54.6158 42.1328 54.4878 42.072Z" fill="white"/>
<path d="M57.1707 38.3279C56.8697 40.1397 56.3875 41.9136 55.7243 43.6265C55.6729 43.7592 55.4602 43.6935 55.5121 43.5595C56.1677 41.8662 56.6508 40.1111 56.9485 38.3197C56.9716 38.1804 57.1941 38.1868 57.1707 38.3279Z" fill="white"/>
<path d="M56.8374 46.6634C55.8476 43.4268 53.6078 40.8141 51.8256 38.0003C50.8543 36.4667 50.094 34.8349 49.3455 33.1848C48.6311 31.6098 47.9192 30.0249 47.4126 28.3682C46.8484 26.5232 46.5892 24.608 46.7737 22.682C46.7873 22.5402 47.0095 22.5474 46.9959 22.6902C46.8285 24.4384 47.0254 26.1796 47.4975 27.8677C47.9653 29.5402 48.6635 31.1362 49.3769 32.7158C50.1255 34.3735 50.8682 36.0314 51.8256 37.5819C52.6932 38.9871 53.6731 40.3181 54.5813 41.6966C55.594 43.2338 56.513 44.8433 57.0539 46.6122C57.0959 46.7494 56.8791 46.7996 56.8374 46.6634Z" fill="white"/>
</g>
<path d="M77.0204 46.4585C77.0204 46.4585 99.9791 33.5326 77.7466 12.4479C73.7001 8.61045 68.5851 6.06073 63.0718 5.2217C47.3455 2.82831 37.3603 5.85286 31.3582 13.1542C25.356 20.4556 17.9251 36.535 34.2472 46.9254" stroke="#606060" stroke-width="2" stroke-miterlimit="10" stroke-dasharray="4 3"/>
<path d="M87.025 16.6625C87.025 19.997 84.322 22.7 80.9875 22.7C77.653 22.7 74.95 19.997 74.95 16.6625C74.95 13.328 77.653 10.625 80.9875 10.625C84.322 10.625 87.025 13.328 87.025 16.6625Z" fill="#015E95"/>
<path d="M80.7862 20.4563C81.5012 20.2665 82.1193 19.8513 82.4497 19.2388C82.4648 19.2106 82.6066 18.9514 82.6023 18.923C82.9862 18.1836 82.9546 16.9567 82.9262 16.547C82.9012 15.4094 82.5939 14.5949 82.312 14.1619C82.3146 14.1181 82.1438 13.8726 82.1092 13.8353C81.4502 13.1243 80.9704 12.9339 80.2317 12.8456C79.8892 12.8047 79.5575 12.9871 79.5736 13.2046L79.732 15.3367C79.748 15.551 80.0957 15.6809 80.4248 15.5935C80.7293 15.5128 81.09 15.3882 81.3999 15.2045C81.5376 15.5633 81.6523 16.0349 81.6642 16.6267L81.6649 16.642C81.6949 17.0671 81.6763 17.5538 81.6142 17.9568C81.2819 17.8186 80.9071 17.7459 80.5931 17.7084C80.2506 17.6675 79.9188 17.8499 79.9349 18.0673L80.0934 20.1995C80.1094 20.4138 80.4571 20.5437 80.7862 20.4563Z" fill="#C8E9F0"/>
<path d="M58.9974 4.35842C58.9974 6.76558 57.0461 8.71683 54.6389 8.71683C52.2318 8.71683 50.2805 6.76558 50.2805 4.35842C50.2805 1.95125 52.2318 0 54.6389 0C57.0461 0 58.9974 1.95125 58.9974 4.35842Z" fill="#015E95"/>
<path d="M56.3781 3.57416C56.3781 2.5656 55.5994 1.74805 54.6387 1.74805C53.6781 1.74805 52.8994 2.5656 52.8994 3.57416C52.8994 3.79124 52.9374 3.99849 53.0035 4.1916L53.0016 4.19147L53.0104 4.21102C53.0454 4.3096 53.0879 4.40413 53.1379 4.49386L54.6997 6.96999L56.2128 4.35139H56.2109C56.317 4.11526 56.3781 3.85258 56.3781 3.57416ZM54.69 4.35902C54.2282 4.35902 53.8539 3.9846 53.8539 3.52278C53.8539 3.06097 54.2282 2.68667 54.69 2.68667C55.1518 2.68667 55.5261 3.06097 55.5261 3.52278C55.5261 3.9846 55.1518 4.35902 54.69 4.35902Z" fill="#C8E9F0"/>
<path d="M35.3264 15.0667C35.9593 14.2769 36.3388 13.2751 36.3388 12.1842C36.3388 9.636 34.2731 7.57031 31.7249 7.57031C29.1768 7.57031 27.1111 9.636 27.1111 12.1842C27.1111 14.7323 29.1768 16.798 31.7249 16.798C32.3098 16.798 32.8686 16.6881 33.3835 16.4896L33.3815 16.4911L35.6764 17.3593L35.3287 15.0649L35.3264 15.0667Z" fill="#015E95"/>
<path d="M30.3577 12.3724C30.3577 12.5801 30.1892 12.7486 29.9815 12.7486C29.7737 12.7486 29.6052 12.5801 29.6052 12.3724C29.6052 12.1646 29.7737 11.9961 29.9815 11.9961C30.1892 11.9961 30.3577 12.1646 30.3577 12.3724Z" fill="#C8E9F0"/>
<path d="M32.0101 12.3724C32.0101 12.5801 31.8416 12.7486 31.6338 12.7486C31.4261 12.7486 31.2576 12.5801 31.2576 12.3724C31.2576 12.1646 31.4261 11.9961 31.6338 11.9961C31.8416 11.9961 32.0101 12.1646 32.0101 12.3724Z" fill="#C8E9F0"/>
<path d="M33.6622 12.3724C33.6622 12.5801 33.4937 12.7486 33.2859 12.7486C33.0782 12.7486 32.9097 12.5801 32.9097 12.3724C32.9097 12.1646 33.0782 11.9961 33.2859 11.9961C33.4937 11.9961 33.6622 12.1646 33.6622 12.3724Z" fill="#C8E9F0"/>
<path d="M45.9196 23.1655C45.8593 23.0205 45.8035 22.8736 45.7537 22.7248C45.7388 22.6938 45.7244 22.6625 45.7082 22.6318L45.7246 22.6366C45.716 22.6098 45.7086 22.5828 45.7003 22.5559C45.0761 23.1584 44.8042 24.3993 45.0835 25.7275C45.2204 26.3783 45.47 26.9567 45.7847 27.4128C45.7831 27.3652 45.7798 27.3175 45.7795 27.2699C45.7749 25.8968 46.2804 24.4399 45.9196 23.1655Z" fill="white"/>
<path d="M47.7256 26.2951C47.6228 26.8935 47.4371 27.4822 47.3671 28.0869C47.3524 28.2141 47.3439 28.3417 47.3398 28.4696C47.447 28.4752 47.5541 28.468 47.6603 28.4457C47.6714 28.4433 47.6821 28.4401 47.693 28.4374C47.6435 27.8664 47.7098 27.2807 47.7243 26.7036C47.7277 26.5674 47.728 26.4312 47.7256 26.2951Z" fill="white"/>
<path d="M53.5091 31.0381C53.4886 30.9735 53.4656 30.9033 53.4401 30.8299C53.4223 30.78 53.406 30.7296 53.3862 30.6805C53.3845 30.6758 53.3824 30.6709 53.3807 30.6661C53.3755 30.6534 53.369 30.6413 53.3638 30.6287C53.3397 30.6302 53.3174 30.6333 53.2924 30.6338C52.6226 30.6479 52.1501 30.2668 51.5605 29.9485C50.9542 29.6212 50.1418 28.8683 49.752 28.35C49.4282 27.9194 49.2424 27.4709 49.1037 27.0078C49.0992 26.9973 49.0945 26.9871 49.0902 26.9765C49.043 26.8569 49.0127 26.7374 48.9979 26.6237C48.9949 26.6114 48.9919 26.5991 48.9888 26.5868C48.8456 27.5487 48.3745 28.2752 47.6936 28.4379C47.7101 28.6285 47.7396 28.8175 47.7881 29.004C48.0737 30.1018 49.005 30.9518 50.061 31.3661C51.1171 31.7804 52.2859 31.8107 53.4156 31.7079C53.493 31.7008 53.5708 31.6923 53.6488 31.6826C53.6185 31.4644 53.5721 31.2488 53.5091 31.0381Z" fill="#0B0042"/>
<path d="M48.9887 26.5869C48.9289 26.3476 48.8738 26.1047 48.813 25.8586C48.4797 25.7824 48.1269 25.633 47.7954 25.4404C47.7973 25.5132 47.798 25.5859 47.7956 25.659C47.7888 25.8732 47.7624 26.085 47.7262 26.2957C47.7286 26.4319 47.7283 26.5681 47.7249 26.7042C47.7104 27.2813 47.6441 27.867 47.6936 28.438C48.3745 28.2753 48.8456 27.5488 48.9887 26.5869Z" fill="#0B0042"/>
<path d="M54.6188 31.3616C54.2308 31.4857 53.9985 31.5245 53.6034 31.3576C53.6034 31.3576 53.5675 31.2226 53.5088 31.0371C53.5718 31.2478 53.618 31.4633 53.6483 31.6815C53.9942 31.6384 54.3378 31.5585 54.6188 31.3616Z" fill="#FFC3C5"/>
<path d="M54.5962 30.1708C54.33 30.3015 54.1163 30.4263 53.8867 30.5138L54.6567 31.3358C54.6443 31.3452 54.6308 31.3525 54.6181 31.3613C54.6734 31.3437 54.732 31.3242 54.7946 31.3034C55.1964 31.1699 55.5155 30.9173 55.8637 30.6569C56.0773 30.4973 56.6593 29.9751 56.8192 29.7445C57.0162 29.4604 57.4102 28.7128 57.5386 28.4965C57.581 28.4252 57.6183 28.3587 57.6528 28.2946C57.6217 28.122 57.6058 27.9454 57.6099 27.7585C56.7675 28.7795 55.5157 29.7194 54.5962 30.1708Z" fill="#FF9798"/>
<path d="M53.8877 30.5151C53.7295 30.5754 53.5622 30.6165 53.366 30.6285C53.3709 30.641 53.3757 30.6534 53.3805 30.666C53.3824 30.6708 53.3842 30.6758 53.3861 30.6805C53.405 30.7309 53.4229 30.7808 53.44 30.8299C53.4646 30.8988 53.488 30.968 53.509 31.038C53.5677 31.2235 53.6038 31.3585 53.6038 31.3585C53.9989 31.5254 54.2311 31.4866 54.6192 31.3625C54.6319 31.3537 54.6454 31.3464 54.6578 31.337L53.8877 30.5151Z" fill="#FF9798"/>
<path d="M45.7851 27.4128C45.8401 29.0452 46.7375 30.6807 48.2119 31.3789C47.6152 30.5387 47.3074 29.4993 47.3404 28.4699C46.7812 28.4407 46.2207 28.0442 45.7851 27.4128Z" fill="#0B0042"/>
<path d="M45.709 22.6309C45.7251 22.6616 45.7396 22.693 45.7545 22.724C45.7446 22.6947 45.7348 22.6654 45.7254 22.6358L45.709 22.6309Z" fill="#0B0042"/>
<path d="M47.7255 26.294C47.72 25.9809 47.6976 25.6683 47.6612 25.3573C47.2048 25.0716 46.801 24.7117 46.5648 24.3638C46.3097 23.988 46.094 23.5844 45.9193 23.1641C46.2801 24.4385 45.7745 25.8954 45.7791 27.2684C45.7794 27.3161 45.7828 27.3638 45.7844 27.4114C46.2201 28.0428 46.7805 28.4393 47.3397 28.4686C47.3439 28.3407 47.3523 28.2131 47.367 28.0859C47.4371 27.4812 47.6228 26.8924 47.7255 26.294Z" fill="#0B0042"/>
<path d="M47.7258 26.2949C47.762 26.0842 47.7883 25.8724 47.7952 25.6582C47.7975 25.5851 47.7968 25.5124 47.7949 25.4396C47.7498 25.4134 47.7057 25.3857 47.6615 25.3581C47.6978 25.6691 47.7203 25.9818 47.7258 26.2949Z" fill="#0B0042"/>
<path d="M64.2708 21.506C63.8904 20.6037 63.1458 19.589 62.4636 18.8865C60.9799 17.3586 59.9298 15.3997 58.2126 14.1398C55.9978 12.5148 51.7871 12.5684 49.8272 14.6092C49.8421 14.606 49.8573 14.6032 49.8724 14.6002C50.4619 14.3453 51.0854 14.1756 51.7264 14.1175C52.2921 14.0661 52.8688 14.1085 53.4235 14.238C54.2783 14.015 55.1955 14.0287 56.0403 14.2888C56.7506 14.5074 57.405 14.8927 57.9678 15.3783C58.3028 15.6675 58.606 15.9916 58.8952 16.3266C60.593 18.293 62.0006 20.5653 62.6905 23.054C63.5989 23.8282 64.0299 25.173 63.5311 26.5857C65.0375 25.2506 65.017 23.2756 64.2708 21.506Z" fill="#0B0042"/>
<path d="M54.6711 28.7705L57.6941 26.4317C57.7081 26.2985 57.7218 26.1621 57.734 26.0206C56.8248 26.9689 55.8061 27.8169 54.7079 28.5319C54.7228 28.6041 54.709 28.6864 54.6711 28.7705Z" fill="white"/>
<path d="M47.9068 22.8409C47.8754 22.8074 47.8435 22.7748 47.8114 22.7436C47.819 22.7877 47.8279 22.8318 47.8366 22.8762C47.8597 22.864 47.8834 22.8526 47.9068 22.8409Z" fill="white"/>
<path d="M48.9246 24.9196C48.772 24.1942 48.4791 23.5591 48.1123 23.0827C48.0858 23.0951 48.0589 23.1065 48.0328 23.1194C47.9898 23.1406 47.9471 23.1637 47.9049 23.1875C47.9635 23.4309 48.0318 23.6657 48.1005 23.8666C48.2124 24.1939 48.3984 24.5437 48.6099 24.8823L48.9876 25.2855C48.971 25.1645 48.9504 25.0426 48.9246 24.9196Z" fill="white"/>
<path d="M48.989 26.5862C48.992 26.5985 48.995 26.6108 48.9981 26.6231C48.9954 26.6027 48.9938 26.5828 48.9921 26.5628C48.9909 26.5706 48.9901 26.5785 48.989 26.5862Z" fill="white"/>
<path d="M49.01 25.4737C49.1195 25.6245 49.2284 25.7681 49.3319 25.9C49.4271 25.8862 49.5299 25.9124 49.6307 25.9716L48.9879 25.2855C48.9965 25.3487 49.0038 25.4113 49.01 25.4737Z" fill="white"/>
<path d="M56.1726 23.3946C56.0218 22.6775 56.071 21.9777 56.2755 21.3842C55.9429 21.4867 55.6115 21.5946 55.2815 21.7064C54.5345 21.9597 53.4085 21.9133 52.3809 21.6619C52.3287 21.6935 52.2771 21.7256 52.2265 21.7588C52.0937 21.8456 51.9786 21.686 52.0231 21.5646C51.3829 21.373 50.8063 21.1019 50.4199 20.7749C50.0247 20.4405 49.5403 19.9495 49.091 20.2065C48.9656 20.2782 48.8769 20.399 48.7957 20.5183C48.3595 21.1585 48.021 21.8646 47.7913 22.6044C47.7982 22.6502 47.8048 22.696 47.8129 22.7424C47.8451 22.7736 47.877 22.8062 47.9084 22.8396C48.3984 22.5938 48.9636 22.4488 49.5024 22.3872C49.6969 22.3651 49.7611 22.6646 49.5654 22.6869C49.0712 22.7433 48.5669 22.8711 48.1133 23.0818C48.48 23.5583 48.7729 24.1932 48.9255 24.9186C48.9514 25.0416 48.972 25.1635 48.9885 25.2845L49.6315 25.9706C49.7666 26.0499 49.8976 26.1875 50.0017 26.3658C50.0396 26.4308 50.0743 26.5004 50.1039 26.5752C50.2909 27.0489 50.2157 27.5224 49.9359 27.6329C49.6626 27.7408 49.2954 27.4614 49.1043 27.0065C49.243 27.4696 49.4288 27.9181 49.7526 28.3487C50.1424 28.867 50.9548 29.6199 51.5611 29.9472C52.1507 30.2655 52.6231 30.6466 53.2929 30.6325C53.318 30.632 53.3403 30.6289 53.3643 30.6274C53.282 30.43 53.1839 30.2393 53.0707 30.0574C53.0624 30.0476 53.0541 30.0364 53.0458 30.0278L53.0494 30.0249C53.0105 29.9639 52.9723 29.9026 52.93 29.8437L53.1513 29.7273L53.9457 29.3095C53.7434 29.3492 53.5674 29.3093 53.4907 29.186C53.3706 28.9932 53.5387 28.6717 53.8659 28.468C54.0777 28.3362 54.3032 28.2872 54.4692 28.3205C54.9711 27.9978 55.4548 27.6483 55.9178 27.2714C56.5185 26.7825 57.1088 26.251 57.6517 25.6788C56.9506 25.2306 56.3859 24.4088 56.1726 23.3946ZM50.639 25.8885C50.8161 25.0403 50.7472 24.5211 50.6988 23.8265C51.1652 24.488 51.5393 25.2553 51.7928 26.0701C51.4757 26.1546 51.1424 26.1727 50.8093 26.1234C50.7664 26.1171 50.7198 26.1073 50.6872 26.0668C50.6503 26.0209 50.6262 25.95 50.639 25.8885ZM49.3808 24.6323C49.2103 24.6682 49.0351 24.5213 48.9895 24.3041C48.9438 24.087 49.045 23.8818 49.2154 23.846C49.3859 23.8102 49.5613 23.9572 49.6069 24.1743C49.6526 24.3914 49.5513 24.5965 49.3808 24.6323ZM52.7645 28.3749C52.4663 28.4822 52.1994 28.4989 51.9645 28.4606C51.1474 28.3277 50.7192 27.5264 50.7192 27.5264L51.001 27.4323L54.308 26.3273C54.308 26.3273 53.7512 28.0201 52.7645 28.3749ZM53.6447 23.3313C53.4743 23.3672 53.299 23.2201 53.2534 23.003C53.2077 22.7859 53.3089 22.5809 53.4794 22.545C53.6498 22.5092 53.8252 22.6561 53.8708 22.8732C53.9165 23.0903 53.8152 23.2955 53.6447 23.3313ZM55.4667 25.6305C54.9684 25.7353 54.4794 25.4163 54.3746 24.9179C54.2698 24.4196 54.5889 23.9307 55.0872 23.8259C55.5856 23.7211 56.0745 24.0401 56.1793 24.5384C56.2841 25.0368 55.9651 25.5257 55.4667 25.6305Z" fill="white"/>
<path d="M49.0283 26.1924C49.0717 26.06 49.1494 25.961 49.2586 25.9178C49.2657 25.9151 49.2731 25.9137 49.2803 25.9114C49.2007 25.9122 49.1186 25.9072 49.0343 25.8964C49.0355 25.9965 49.0335 26.0954 49.0283 26.1924Z" fill="white"/>
<path d="M49.0285 26.1922C49.0336 26.0953 49.0356 25.9964 49.0344 25.8962C48.962 25.887 48.8884 25.8746 48.8135 25.8574C48.8743 26.1035 48.9294 26.3464 48.9892 26.5857C48.9904 26.5779 48.9913 26.5699 48.9924 26.5621C48.9812 26.4246 48.9938 26.2978 49.0285 26.1922Z" fill="white"/>
<path d="M48.6106 24.8828C48.738 25.0866 48.8739 25.2862 49.0104 25.4743C49.0042 25.4119 48.9969 25.3491 48.9883 25.286L48.6106 24.8828Z" fill="white"/>
<path d="M53.9871 29.2997C53.973 29.3032 53.9588 29.3077 53.9449 29.3103L53.1504 29.728L53.2693 29.8549L53.9871 29.2997Z" fill="white"/>
<path d="M53.1501 29.7279L52.9289 29.8442C52.9711 29.9032 53.0093 29.9646 53.0482 30.0256L53.269 29.8548L53.1501 29.7279Z" fill="white"/>
<path d="M53.0703 30.0586C53.1834 30.2406 53.2815 30.4311 53.3639 30.6285C53.3646 30.6285 53.3655 30.6285 53.3662 30.6284C53.279 30.4031 53.176 30.1835 53.0703 30.0586Z" fill="white"/>
<path d="M54.4785 29.0297L57.612 27.3822C57.6235 27.0719 57.6587 26.7624 57.6935 26.432L54.6705 28.7707C54.6311 28.8584 54.5655 28.9479 54.4785 29.0297Z" fill="white"/>
<path d="M53.0456 30.0293C53.054 30.0379 53.0622 30.0493 53.0706 30.0592C53.0637 30.0481 53.0561 30.0374 53.0492 30.0265L53.0456 30.0293Z" fill="white"/>
<path d="M54.2996 29.1671C54.1958 29.2318 54.089 29.2745 53.9869 29.2996L53.2691 29.8549L53.8874 30.5147C54.1169 30.4272 54.3307 30.3023 54.5969 30.1715C55.5164 29.7202 56.7683 28.7804 57.6107 27.7594C57.6108 27.7551 57.6106 27.7509 57.6107 27.7466C57.6064 27.624 57.6075 27.5029 57.612 27.382L54.4786 29.0295C54.4261 29.0788 54.3665 29.1256 54.2996 29.1671Z" fill="white"/>
<path d="M53.0482 30.0253C53.0552 30.0362 53.0627 30.0468 53.0695 30.0578C53.1752 30.1827 53.2782 30.4023 53.3654 30.6276C53.5616 30.6156 53.729 30.5745 53.8871 30.5143L53.2689 29.8546L53.0482 30.0253Z" fill="white"/>
<path d="M48.69 18.9995C48.6668 19.0596 48.6429 19.1195 48.6184 19.1794L48.8947 19.1745C48.8268 19.1154 48.7586 19.0569 48.69 18.9995Z" fill="#FF9798"/>
<path d="M54.2192 19.0782L54.3477 19.0759C54.29 19.0276 54.2318 18.98 54.1758 18.9297C54.187 18.9802 54.2021 19.0295 54.2192 19.0782Z" fill="#FF9798"/>
<path d="M55.8173 20.0105C55.2898 19.7626 54.794 19.4484 54.3468 19.0746L54.2183 19.0769C54.4984 19.8734 55.5319 20.429 56.2552 20.8692C56.0115 21.0604 54.7098 21.5166 54.4008 21.5381C53.7803 21.5814 53.2602 21.557 52.7489 21.4569C52.6225 21.5202 52.499 21.5888 52.3794 21.6615C53.407 21.9129 54.5331 21.9594 55.28 21.7061C55.61 21.5942 55.9414 21.4863 56.2741 21.3838C56.3471 21.1719 56.4396 20.9733 56.5503 20.7927C56.2846 20.4226 56.0229 20.1727 55.8173 20.0105Z" fill="#FF9798"/>
<path d="M52.0848 21.487C52.1562 21.4403 52.2299 21.3953 52.3046 21.3513C51.9856 21.2611 51.66 21.1408 51.3057 20.987C50.3886 20.5888 49.6588 19.8376 48.8947 19.1733L48.6184 19.1783C48.236 20.1165 47.7219 21.0321 47.7423 22.0987C47.7454 22.2547 47.7633 22.4271 47.79 22.6048C48.0196 21.865 48.3581 21.1589 48.7943 20.5187C48.8756 20.3994 48.9643 20.2786 49.0896 20.2069C49.539 19.9499 50.0235 20.4409 50.4186 20.7753C50.805 21.1023 51.3817 21.3734 52.0219 21.565C52.0328 21.5353 52.0527 21.5079 52.0848 21.487Z" fill="#FF9798"/>
<path d="M47.2417 21.8128L46.9987 20.6626C46.9193 20.4619 46.8932 20.254 46.9034 20.0439C46.8673 20.4202 46.8524 20.7985 46.8585 21.1763C46.8622 21.4069 46.8737 21.6371 46.889 21.8673C46.8896 21.8767 46.8901 21.8829 46.8904 21.8875C46.8908 21.8919 46.8912 21.8977 46.8919 21.9066C46.8939 21.9302 46.8957 21.9538 46.8976 21.9774C46.901 22.019 46.9045 22.0605 46.9081 22.102C46.9114 22.1393 46.9149 22.1765 46.9183 22.2137C47.027 22.2403 47.1352 22.2795 47.2417 22.3317C47.2363 22.2869 47.2308 22.2422 47.2288 22.1964C47.2235 22.0724 47.2281 21.9439 47.2417 21.8128Z" fill="#0B0042"/>
<path d="M47.5652 18.2301C47.4957 18.1952 47.4247 18.1634 47.3531 18.133C47.1819 18.5475 47.0595 18.9815 46.9844 19.4163C46.9574 19.5724 46.9359 19.7295 46.918 19.8868C46.9735 19.4661 47.1594 19.042 47.3495 18.6552C47.4189 18.514 47.4909 18.3719 47.5652 18.2301Z" fill="#0B0042"/>
<path d="M46.3782 22.1948C46.2797 21.0596 46.2906 19.9151 46.5648 18.8027C46.636 18.5138 46.7278 18.2324 46.8385 17.9611C46.8167 17.9559 46.7954 17.9499 46.7734 17.9453L46.5746 17.9935C46.6381 17.291 47.0861 16.6831 47.5818 16.1813C48.2215 15.5338 48.9821 14.9938 49.8126 14.625L49.8114 14.6241C49.8167 14.6185 49.8225 14.6135 49.8278 14.608C46.5829 15.296 45.8355 17.9713 45.5213 19.5776C45.3281 20.565 45.4054 21.5914 45.7004 22.5546C45.8866 22.3748 46.1038 22.2513 46.3475 22.2C46.3577 22.1979 46.368 22.1967 46.3782 22.1948Z" fill="#0B0042"/>
<path d="M45.9202 23.1653C45.8778 23.0157 45.8226 22.8687 45.7542 22.7246C45.804 22.8734 45.8599 23.0203 45.9202 23.1653Z" fill="#0B0042"/>
<path d="M47.2373 23.0872C47.2563 23.1415 47.2754 23.1957 47.2943 23.2503C47.3533 23.1947 47.416 23.1416 47.4832 23.0928C47.3631 22.8512 47.2741 22.5997 47.2419 22.3319C47.1355 22.2797 47.0273 22.2405 46.9185 22.2139C46.9223 22.2549 46.926 22.296 46.9297 22.337C46.9432 22.483 46.8776 22.6242 46.721 22.6572C46.5899 22.6847 46.4142 22.5939 46.4008 22.4483C46.3935 22.37 46.3863 22.2918 46.3793 22.2135C46.3788 22.2074 46.3785 22.2012 46.378 22.1952C46.3678 22.1971 46.3577 22.1982 46.3474 22.2004C46.1037 22.2516 45.8864 22.3752 45.7002 22.5549C45.7085 22.5818 45.716 22.6089 45.7245 22.6357L47.2373 23.0872Z" fill="#0B0042"/>
<path d="M47.5874 23.4013C47.586 23.4091 47.5838 23.4168 47.5823 23.4246L47.5789 23.4085C47.5492 23.4328 47.5193 23.457 47.4913 23.4828C47.459 23.5126 47.4316 23.5448 47.4061 23.5781C47.4092 23.5876 47.4123 23.597 47.4154 23.6065L48.4441 24.7045C48.239 24.2507 47.9009 23.8209 47.6323 23.3654C47.617 23.377 47.6024 23.3892 47.5874 23.4013Z" fill="#0B0042"/>
<path d="M48.4443 24.7062L47.4157 23.6082C47.6136 24.2067 47.7788 24.8172 47.7952 25.4406C48.1268 25.6331 48.4794 25.7825 48.8127 25.8588C48.7287 25.5183 48.6331 25.1719 48.494 24.8202C48.479 24.7819 48.4615 24.7441 48.4443 24.7062Z" fill="#0B0042"/>
<path d="M47.398 23.5894L47.416 23.6086C47.4128 23.599 47.4097 23.5895 47.4065 23.5799C47.404 23.5832 47.4005 23.5861 47.398 23.5894Z" fill="#0B0042"/>
<path d="M47.3209 23.7149C47.2798 23.7992 47.2523 23.8909 47.2335 23.988C47.1966 24.1789 46.8904 24.1622 46.9278 23.9691C46.975 23.7252 47.0514 23.5044 47.2231 23.3193C47.245 23.2957 47.2702 23.2738 47.2941 23.2513C47.2752 23.1968 47.2561 23.1425 47.2372 23.0882L45.7244 22.6367C45.7338 22.6663 45.7437 22.6956 45.7535 22.7249C45.822 22.869 45.877 23.016 45.9194 23.1656C46.0941 23.586 46.3098 23.9895 46.5649 24.3653C46.8011 24.7132 47.2049 25.0731 47.6613 25.3588C47.5963 24.8023 47.4823 24.2515 47.3209 23.7149Z" fill="#0B0042"/>
<path d="M47.4158 23.6065L47.398 23.5875C47.3685 23.6274 47.3429 23.6694 47.3214 23.7134C47.4828 24.2501 47.5967 24.8008 47.6618 25.3574C47.706 25.3851 47.7503 25.4127 47.7954 25.4389C47.779 24.8155 47.6138 24.205 47.4158 23.6065Z" fill="#0B0042"/>
<path d="M49.8123 14.6263C49.8325 14.6174 49.8528 14.609 49.8729 14.6003C49.8579 14.6033 49.8426 14.6061 49.8277 14.6093C49.8224 14.6148 49.8165 14.6199 49.8112 14.6256L49.8123 14.6263Z" fill="#0B0042"/>
<path d="M47.2426 21.814C47.229 21.9451 47.2243 22.0736 47.2297 22.1975C47.2316 22.2434 47.2373 22.288 47.2427 22.3329C47.2843 22.3533 47.3253 22.3759 47.3663 22.3999L47.2426 21.814Z" fill="#0B0042"/>
<path d="M47.8115 22.7438C47.8034 22.6974 47.7967 22.6515 47.7899 22.6057C47.7803 22.6362 47.7708 22.6668 47.7617 22.6975C47.7784 22.7128 47.7951 22.7279 47.8115 22.7438Z" fill="#0B0042"/>
<path d="M47.9054 23.1875C47.811 23.2408 47.7193 23.3008 47.6329 23.3667C47.9016 23.8222 48.2396 24.2519 48.4447 24.7057L48.6104 24.8825C48.3989 24.5439 48.2129 24.194 48.101 23.8667C48.0323 23.6658 47.964 23.431 47.9054 23.1875Z" fill="#0B0042"/>
<path d="M47.3665 22.3996C47.3256 22.3756 47.2844 22.3529 47.2428 22.3325C47.275 22.6003 47.3639 22.8519 47.4841 23.0934C47.4925 23.0874 47.5007 23.0813 47.5093 23.0753L47.3665 22.3996Z" fill="#0B0042"/>
<path d="M47.69 22.9584C47.7266 22.9367 47.7633 22.9147 47.7997 22.8949C47.8119 22.8882 47.8248 22.8825 47.8372 22.876C47.8285 22.8316 47.8194 22.7874 47.8118 22.7433C47.7954 22.7274 47.7787 22.7124 47.762 22.6971C47.7363 22.7838 47.7126 22.8709 47.69 22.9584Z" fill="#0B0042"/>
<path d="M49.0336 25.8968C49.1179 25.9075 49.1999 25.9124 49.2795 25.9116C49.2966 25.9063 49.3139 25.9021 49.3316 25.8995C49.2281 25.7675 49.1192 25.624 49.0097 25.4732C49.0239 25.6167 49.0319 25.7582 49.0336 25.8968Z" fill="#0B0042"/>
<path d="M49.0103 25.4731C48.8738 25.285 48.7379 25.0856 48.6105 24.8818L48.4448 24.7051C48.462 24.743 48.4793 24.7808 48.4944 24.8191C48.6335 25.1709 48.7292 25.5173 48.8132 25.8577C48.8881 25.8749 48.9617 25.8873 49.0341 25.8965C49.0325 25.758 49.0245 25.6166 49.0103 25.4731Z" fill="#0B0042"/>
<path d="M48.4623 19.1823L48.618 19.1795C48.6425 19.1196 48.6666 19.0596 48.6897 18.9995C48.3336 18.7018 47.966 18.4308 47.565 18.23C47.4907 18.3717 47.4186 18.514 47.3492 18.6552C47.1591 19.042 46.9732 19.4661 46.9177 19.8869C46.9117 19.9396 46.908 19.9926 46.9029 20.0455C46.8927 20.2555 46.9189 20.4634 46.9982 20.6642L47.2413 21.8144C47.3368 20.8908 47.8748 19.8298 48.4623 19.1823Z" fill="#0B0042"/>
<path d="M47.5887 23.4021C47.5856 23.4047 47.5827 23.4073 47.5795 23.4099L47.5832 23.4271C47.5848 23.4186 47.5871 23.4106 47.5887 23.4021Z" fill="#0B0042"/>
<path d="M47.762 22.6972C47.7712 22.6665 47.7806 22.636 47.7901 22.6055C47.7634 22.4278 47.7455 22.2552 47.7424 22.0992C47.722 21.0327 48.2362 20.1172 48.6186 19.179L48.4626 19.1817C47.8752 19.8292 47.3373 20.8901 47.2418 21.8138L47.3655 22.3998C47.5018 22.4797 47.6346 22.5795 47.762 22.6972Z" fill="#0B0042"/>
<path d="M47.7619 22.6978C47.6344 22.5801 47.5017 22.4803 47.3655 22.4004L47.5082 23.0761C47.5676 23.0342 47.6285 22.9957 47.6899 22.9592C47.7125 22.8717 47.7361 22.7844 47.7619 22.6978Z" fill="#0B0042"/>
<path d="M50.0777 15.6186C50.393 15.5104 50.7203 15.4606 51.0512 15.4528L50.8022 15.2867C50.3767 15.3826 49.9623 15.5287 49.5732 15.7218L49.5016 15.8908C49.6823 15.7821 49.8729 15.6888 50.0777 15.6186Z" fill="#0B0042"/>
<path d="M50.2107 14.8922L49.9885 14.7438L49.8773 15.0064C49.9872 14.9652 50.0984 14.9272 50.2107 14.8922Z" fill="#0B0042"/>
<path d="M52.814 15.7313C53.1839 15.8435 53.5757 16.0045 53.9776 16.2022L53.3741 15.3646C52.5469 15.1062 51.6528 15.0942 50.8026 15.2857L51.0517 15.4519C51.6423 15.4378 52.2449 15.5587 52.814 15.7313Z" fill="#0B0042"/>
<path d="M49.9881 14.7424L50.2105 14.8908C50.7848 14.7117 51.3874 14.6131 51.9805 14.6082C52.286 14.6057 52.5887 14.6329 52.8861 14.6871L52.733 14.4746C52.9565 14.3771 53.1879 14.2986 53.4237 14.237C52.8691 14.1075 52.2924 14.0649 51.7266 14.1163C51.0857 14.1745 50.4623 14.3442 49.8728 14.599C49.9366 14.586 49.9995 14.5722 50.0652 14.5607L49.9881 14.7424Z" fill="#0B0042"/>
<path d="M54.2184 19.078C54.2013 19.0293 54.1863 18.9801 54.175 18.9296C54.231 18.9799 54.2892 19.0274 54.3469 19.0757L55.9926 19.0462C55.9409 18.9598 55.8902 18.8744 55.8415 18.7907L55.6428 18.5149L51.0516 15.4525C50.7206 15.4603 50.3933 15.5101 50.078 15.6183C49.8732 15.6885 49.6826 15.7818 49.502 15.8905L48.9955 17.0864C49.0859 17.769 48.9241 18.3908 48.69 18.9987C48.7586 19.0561 48.8268 19.1146 48.8947 19.1737L54.2184 19.078Z" fill="#0B0042"/>
<path d="M53.9774 16.2035C53.5755 16.0057 53.1837 15.8447 52.8138 15.7326C52.2447 15.56 51.6421 15.4391 51.0515 15.4531L55.6429 18.5154L53.9774 16.2035Z" fill="#0B0042"/>
<path d="M55.4132 19.7521L56.1718 19.3425C56.111 19.2427 56.0513 19.144 55.9928 19.0465L54.3472 19.0762C54.7943 19.45 55.29 19.7641 55.8175 20.012C55.5767 19.8221 55.4132 19.7521 55.4132 19.7521Z" fill="#0B0042"/>
<path d="M51.306 20.9875C51.6603 21.1413 51.9859 21.2616 52.3049 21.3518C52.7337 21.0994 53.2111 20.8961 53.693 20.7959C53.9229 20.7481 54.181 20.7201 54.4151 20.7469C54.6563 20.7744 54.8598 20.8849 55.0455 21.037C55.1967 21.1607 55.0307 21.4182 54.8782 21.2934C54.7098 21.1554 54.5394 21.0564 54.3181 21.0465C54.1075 21.0372 53.8896 21.0629 53.6849 21.1115C53.3641 21.1876 53.0485 21.3083 52.7493 21.4581C53.2606 21.5582 53.7807 21.5826 54.4011 21.5393C54.7101 21.5178 56.0119 21.0615 56.2555 20.8704C55.5323 20.4302 54.4988 19.8747 54.2187 19.0782L48.895 19.1738C49.6591 19.8381 50.3889 20.5893 51.306 20.9875Z" fill="#0B0042"/>
<path d="M49.2457 15.2826C49.4495 15.1787 49.6612 15.0862 49.878 15.005L49.9891 14.7425L49.8132 14.6252C48.9827 14.9941 48.2223 15.5339 47.5826 16.1815C47.0869 16.6833 46.6388 17.2912 46.5754 17.9937L46.774 17.9455C46.796 17.9502 46.8173 17.9561 46.8392 17.9613C47.3052 16.8199 48.1173 15.8576 49.2457 15.2826Z" fill="#0B0042"/>
<path d="M49.5023 15.8893L49.5739 15.7203C49.3777 15.8177 49.1874 15.9259 49.0058 16.0461C48.2348 16.5566 47.695 17.304 47.3533 18.1309C47.4249 18.1613 47.4959 18.1931 47.5654 18.228C48.049 17.3057 48.6482 16.4033 49.5023 15.8893Z" fill="#0B0042"/>
<path d="M49.9877 14.7433L50.0647 14.5615C49.9991 14.5731 49.9362 14.5869 49.8724 14.6C49.8522 14.6087 49.8319 14.6172 49.8118 14.626L49.9877 14.7433Z" fill="#0B0042"/>
<path d="M49.5022 15.8898C48.6481 16.4038 48.0491 17.3063 47.5655 18.2286C47.9665 18.4294 48.3341 18.7004 48.6902 18.9981C48.9244 18.3903 49.086 17.7683 48.9956 17.0858L49.5022 15.8898Z" fill="#0B0042"/>
<path d="M61.571 22.4698L60.9298 22.0421C60.9624 22.1513 60.9913 22.2631 61.0154 22.3775C61.378 24.1019 60.5875 25.7279 59.2498 26.0092C59.0714 26.0467 58.8923 26.0576 58.715 26.0457C58.5501 26.3773 58.3352 26.7257 58.0585 27.1478L58.1552 27.0969C57.9136 28.1037 58.0578 29.198 58.5518 30.1079C58.5858 30.1705 58.6217 30.232 58.6588 30.2927C58.712 30.2782 58.7646 30.257 58.8143 30.2352C59.6913 29.8518 60.5611 29.4226 61.2924 28.8051C62.0237 28.1875 62.8033 27.2847 62.9772 26.3435C63.0898 25.7343 63.0944 25.0442 62.9958 24.4326C62.9206 23.9661 62.816 23.507 62.6905 23.0543C62.37 22.7812 61.9907 22.5786 61.571 22.4698Z" fill="#0B0042"/>
<path d="M58.1563 27.0959L58.0596 27.1466C58.0388 27.1782 58.0194 27.2084 57.998 27.2409C57.9567 27.5742 57.8906 27.857 57.6541 28.295C57.6855 28.4692 57.7322 28.6396 57.7891 28.8134C57.7895 28.815 57.7898 28.8163 57.7903 28.8178C57.7907 28.8191 57.791 28.8198 57.7914 28.8211C57.9054 29.1676 58.0579 29.5286 58.2068 29.9625C58.2513 30.0922 58.3094 30.2354 58.4359 30.2884C58.5072 30.3182 58.5841 30.3121 58.6599 30.2915C58.6227 30.2308 58.5868 30.1694 58.5528 30.1069C58.0589 29.1969 57.9147 28.1027 58.1563 27.0959Z" fill="#0B0042"/>
<path d="M57.6114 27.7597C57.6072 27.9466 57.6231 28.123 57.6543 28.2957C57.8907 27.8577 57.9568 27.5749 57.9981 27.2416C57.8835 27.4154 57.7526 27.5885 57.6114 27.7597Z" fill="#0B0042"/>
<path d="M57.968 15.378C57.4053 14.8924 56.7509 14.5071 56.0405 14.2884C55.1958 14.0283 54.2786 14.0148 53.4237 14.2378C54.408 14.4676 55.3222 14.9745 55.9778 15.7399C56.2312 16.0356 56.4439 16.3636 56.6557 16.6905C57.3156 17.7087 57.9754 18.727 58.6353 19.7452C59.6372 19.8955 60.556 20.7912 60.9301 22.0415L61.5713 22.4691C61.991 22.5779 62.3704 22.7805 62.6908 23.0537C62.0009 20.565 60.5933 18.2926 58.8956 16.3262C58.6063 15.9913 58.303 15.6672 57.968 15.378Z" fill="#0B0042"/>
<path d="M57.7341 26.0213C57.7219 26.1628 57.708 26.2993 57.6941 26.4325L58.1585 26.0732C58.0608 26.5653 58.038 26.8925 58.0057 27.1759L58.0596 27.1475C58.3363 26.7254 58.5511 26.377 58.716 26.0454C58.4418 26.0268 58.172 25.9522 57.9156 25.8282C57.8555 25.8929 57.7953 25.9575 57.7341 26.0213Z" fill="#0B0042"/>
<path d="M57.9976 27.242C58.019 27.2095 58.0384 27.1793 58.0591 27.1477L58.0051 27.1761C58.0026 27.1981 58.0002 27.2205 57.9976 27.242Z" fill="#0B0042"/>
<path d="M58.0054 27.1756C58.0378 26.8922 58.0605 26.565 58.1583 26.0729L57.6938 26.4322C57.6591 26.7626 57.6239 27.072 57.6124 27.3822L58.0054 27.1756Z" fill="#0B0042"/>
<path d="M57.6115 27.3818C57.607 27.5027 57.606 27.6237 57.6102 27.7463C57.6101 27.7506 57.6103 27.7547 57.6102 27.759C57.7514 27.5879 57.8824 27.4147 57.997 27.2409C57.9996 27.2194 58.0021 27.1971 58.0046 27.1751L57.6115 27.3818Z" fill="#0B0042"/>
<path d="M56.5509 20.7939C56.6384 20.6511 56.7374 20.5196 56.8463 20.401C56.4938 20.2988 56.15 20.1677 55.8179 20.0117C56.0234 20.1739 56.2851 20.4238 56.5509 20.7939Z" fill="#0B0042"/>
<path d="M56.45 17.7821C55.7522 16.8273 54.8176 15.9278 53.6956 15.4784C53.5899 15.4361 53.4825 15.3991 53.3743 15.3652L53.9776 16.2029C54.7919 16.6036 55.6477 17.1583 56.45 17.7821Z" fill="#0B0042"/>
<path d="M52.8865 14.6876C53.3792 14.7773 53.8573 14.9408 54.3087 15.166C55.5784 15.7995 56.5599 16.907 57.3095 18.0898C57.4875 18.3707 57.6585 18.6613 57.8153 18.9597C57.8336 18.9772 57.8518 18.9946 57.8699 19.0121L58.1251 19.0076C58.2009 19.1671 58.273 19.3287 58.3424 19.4916C58.4189 19.5728 58.4939 19.654 58.5663 19.7349C58.5895 19.7376 58.6128 19.7415 58.6359 19.7449C57.976 18.7267 57.3162 17.7084 56.6563 16.6902C56.4445 16.3633 56.2318 16.0354 55.9784 15.7396C55.3228 14.9742 54.4086 14.4673 53.4243 14.2375C53.1884 14.2991 52.957 14.3776 52.7334 14.4751L52.8865 14.6876Z" fill="#0B0042"/>
<path d="M58.1245 19.0072L57.8694 19.0117C58.0338 19.1711 58.1913 19.3313 58.3418 19.4912C58.2723 19.3283 58.2003 19.1667 58.1245 19.0072Z" fill="#0B0042"/>
<path d="M55.9932 19.0468L56.4281 19.039L55.6436 18.5156L55.8421 18.7913C55.8907 18.875 55.9415 18.9604 55.9932 19.0468Z" fill="#0B0042"/>
<path d="M53.9775 16.2031L55.6431 18.5151L56.4278 19.0385L57.2294 19.0241C57.0531 18.6981 56.8622 18.38 56.6549 18.0729C56.5893 17.9757 56.5204 17.8787 56.4499 17.7822C55.6476 17.1584 54.7918 16.6038 53.9775 16.2031Z" fill="#0B0042"/>
<path d="M58.5658 19.7355C58.4934 19.6546 58.4183 19.5734 58.3418 19.4922C58.3747 19.5694 58.4066 19.647 58.4379 19.7248C58.4806 19.727 58.5233 19.7306 58.5658 19.7355Z" fill="#0B0042"/>
<path d="M57.87 19.0116C57.8518 18.994 57.8337 18.9765 57.8154 18.959C57.8247 18.9768 57.8344 18.9942 57.8437 19.012L57.87 19.0116Z" fill="#0B0042"/>
<path d="M56.1714 19.3427L55.4127 19.7523C55.4127 19.7523 55.5764 19.8223 55.8172 20.0122C56.1493 20.1682 56.4932 20.2993 56.8456 20.4015C57.0678 20.1595 57.3327 19.9723 57.6314 19.856C57.6287 19.8495 57.6258 19.8429 57.623 19.8363L56.4275 19.0389L55.9925 19.0467C56.0509 19.1442 56.1106 19.243 56.1714 19.3427Z" fill="#0B0042"/>
<path d="M57.6232 19.8365C57.5674 19.7057 57.5108 19.5752 57.4481 19.4471C57.3783 19.3046 57.3047 19.1641 57.2292 19.0246L56.4275 19.0391L57.6232 19.8365Z" fill="#0B0042"/>
<path d="M58.1753 19.728C58.263 19.7206 58.3509 19.719 58.4381 19.7234C58.4068 19.6456 58.3749 19.5679 58.3419 19.4906C58.1915 19.3307 58.0338 19.1707 57.8694 19.0113L57.843 19.0117C57.9644 19.2461 58.0765 19.4852 58.1753 19.728Z" fill="#0B0042"/>
<path d="M50.6375 25.8893C50.6247 25.9508 50.6488 26.0217 50.6857 26.0676C50.7183 26.1081 50.7648 26.1179 50.8077 26.1242C51.1409 26.1734 51.4741 26.1554 51.7912 26.0708C51.5377 25.2561 51.1637 24.4887 50.6973 23.8273C50.7456 24.5219 50.8146 25.0411 50.6375 25.8893Z" fill="#FF9798"/>
<path d="M49.5646 22.688C49.7603 22.6657 49.6961 22.3662 49.5016 22.3884C48.9628 22.4499 48.3975 22.5949 47.9074 22.8408C47.978 22.9159 48.0463 22.997 48.1125 23.0828C48.5661 22.8721 49.0704 22.7444 49.5646 22.688Z" fill="#0B0042"/>
<path d="M47.9044 23.1866C47.9466 23.1628 47.9892 23.1398 48.0323 23.1185C48.0584 23.1056 48.0853 23.0942 48.1118 23.0818C48.0457 22.996 47.9775 22.9148 47.9069 22.8397C47.8835 22.8514 47.8598 22.8629 47.8367 22.8752C47.8572 22.9794 47.8796 23.0837 47.9044 23.1866Z" fill="#0B0042"/>
<path d="M47.4915 23.4844C47.5195 23.4585 47.5496 23.4344 47.5793 23.41L47.5323 23.1878C47.5157 23.1566 47.4991 23.1254 47.4834 23.0939C47.4162 23.1428 47.3535 23.1959 47.2945 23.2515C47.3323 23.3605 47.3698 23.4699 47.4063 23.5797C47.4319 23.5464 47.4592 23.5142 47.4915 23.4844Z" fill="#0B0042"/>
<path d="M47.5881 23.4032C47.603 23.3911 47.6178 23.379 47.633 23.3674C47.624 23.3519 47.6152 23.3364 47.6063 23.321C47.6005 23.3484 47.5934 23.3757 47.5881 23.4032Z" fill="#0B0042"/>
<path d="M46.9276 23.9683C46.8902 24.1615 47.1965 24.1782 47.2334 23.9873C47.2522 23.8903 47.2796 23.7986 47.3207 23.7142C47.2891 23.6096 47.2573 23.505 47.2222 23.4014L47.3973 23.5882C47.3998 23.5849 47.4032 23.5821 47.4057 23.5788C47.3692 23.469 47.3318 23.3597 47.2939 23.2507C47.27 23.2732 47.2448 23.2949 47.2229 23.3185C47.0512 23.5036 46.9748 23.7244 46.9276 23.9683Z" fill="#0B0042"/>
<path d="M47.3212 23.715C47.3427 23.671 47.3683 23.629 47.3978 23.5891L47.2229 23.4023C47.258 23.5059 47.2896 23.6104 47.3212 23.715Z" fill="#0B0042"/>
<path d="M47.5085 23.0742C47.5 23.0802 47.4917 23.0862 47.4833 23.0922C47.4989 23.1237 47.5155 23.1549 47.5321 23.1861L47.5085 23.0742Z" fill="#0B0042"/>
<path d="M47.8368 22.876C47.8245 22.8825 47.8115 22.8882 47.7994 22.8949C47.763 22.9147 47.7263 22.9368 47.6896 22.9585C47.6586 23.0784 47.6307 23.1989 47.6053 23.3201C47.6142 23.3355 47.623 23.351 47.632 23.3665C47.7184 23.3006 47.81 23.2406 47.9044 23.1873C47.8797 23.0844 47.8572 22.9802 47.8368 22.876Z" fill="#0B0042"/>
<path d="M47.6056 23.3204C47.5803 23.2763 47.5557 23.2321 47.532 23.1875L47.579 23.4097C47.5819 23.4074 47.5846 23.4049 47.5875 23.4025C47.5929 23.375 47.5999 23.3478 47.6056 23.3204Z" fill="#0B0042"/>
<path d="M47.6907 22.9585C47.6293 22.995 47.5684 23.0334 47.509 23.0753L47.5327 23.1873C47.5564 23.2319 47.581 23.2761 47.6063 23.3201C47.6317 23.199 47.6596 23.0783 47.6907 22.9585Z" fill="#0B0042"/>
<path d="M49.2142 23.8472C49.0437 23.883 48.9425 24.0881 48.9882 24.3052C49.0338 24.5223 49.2091 24.6693 49.3795 24.6334C49.55 24.5976 49.6512 24.3925 49.6055 24.1754C49.5599 23.9583 49.3846 23.8114 49.2142 23.8472Z" fill="white"/>
<path d="M53.8692 22.8746C53.8235 22.6575 53.6483 22.5106 53.4779 22.5464C53.3074 22.5823 53.2062 22.7873 53.2519 23.0044C53.2975 23.2216 53.4727 23.3685 53.6432 23.3326C53.8136 23.2968 53.9148 23.0917 53.8692 22.8746Z" fill="white"/>
<path d="M52.7632 28.3758C53.7498 28.021 54.3068 26.3282 54.3068 26.3282L50.9997 27.4333L51.9632 28.4615C52.1981 28.4998 52.4649 28.4831 52.7632 28.3758Z" fill="white"/>
<path d="M50.7172 27.5276C50.7172 27.5276 51.1455 28.3288 51.9625 28.4618L50.999 27.4334L50.7172 27.5276Z" fill="white"/>
<path d="M55.4656 25.6305C55.964 25.5257 56.283 25.0368 56.1782 24.5384C56.0734 24.0401 55.5845 23.7211 55.0861 23.8259C54.5878 23.9307 54.2688 24.4196 54.3736 24.9179C54.4784 25.4163 54.9673 25.7353 55.4656 25.6305Z" fill="#FF9798"/>
<path d="M49.0898 26.975C49.0941 26.9856 49.0988 26.9957 49.1033 27.0062C49.0653 26.8791 49.0302 26.7513 48.9975 26.6222C49.0123 26.7359 49.0426 26.8554 49.0898 26.975Z" fill="#FF9798"/>
<path d="M49.6301 25.9707L50.0004 26.3659C49.8963 26.1876 49.7652 26.0499 49.6301 25.9707Z" fill="#FF9798"/>
<path d="M49.9349 27.634C50.2146 27.5236 50.2899 27.05 50.1029 26.5764C50.0733 26.5016 50.0386 26.4319 50.0007 26.3669L49.6304 25.9718C49.5296 25.9126 49.4268 25.8863 49.3316 25.9001C49.3347 25.9041 49.338 25.9086 49.3411 25.9126C49.3211 25.9136 49.2998 25.912 49.2794 25.9122C49.2722 25.9145 49.2648 25.9159 49.2578 25.9187C49.1485 25.9619 49.0709 26.0609 49.0275 26.1932C49.0207 26.3197 49.0085 26.4431 48.9915 26.5632C48.9932 26.5831 48.9948 26.6031 48.9975 26.6236C49.0302 26.7527 49.0653 26.8806 49.1033 27.0077C49.2944 27.4626 49.6615 27.742 49.9349 27.634Z" fill="#FF9798"/>
<path d="M49.0274 26.1919C48.9928 26.2976 48.9802 26.4244 48.9915 26.562C49.0085 26.442 49.0206 26.3185 49.0274 26.1919Z" fill="#FF9798"/>
<path d="M49.2789 25.9118C49.2993 25.9115 49.3208 25.9132 49.3408 25.9121C49.3377 25.9081 49.3342 25.9037 49.3311 25.8997C49.3135 25.9023 49.296 25.9065 49.2789 25.9118Z" fill="#FF9798"/>
<path d="M52.2255 21.7593C52.2761 21.7262 52.3277 21.6941 52.3799 21.6624C52.259 21.6328 52.1396 21.6003 52.0222 21.5652C51.9776 21.6866 52.0927 21.8462 52.2255 21.7593Z" fill="#0B0042"/>
<path d="M52.3044 21.352C52.2298 21.396 52.1562 21.4409 52.0848 21.4876C52.0527 21.5086 52.0326 21.5359 52.0218 21.5656C52.1392 21.6007 52.2586 21.6332 52.3795 21.6628C52.4991 21.5902 52.6225 21.5215 52.7488 21.4583C52.6008 21.4292 52.4532 21.3941 52.3044 21.352Z" fill="#0B0042"/>
<path d="M54.3174 21.0472C54.5387 21.057 54.7091 21.156 54.8775 21.294C55.03 21.4189 55.1959 21.1614 55.0448 21.0377C54.8591 20.8855 54.6556 20.7751 54.4144 20.7475C54.1803 20.7208 53.9222 20.7487 53.6923 20.7965C53.2104 20.8967 52.733 21.1 52.3041 21.3525C52.4529 21.3945 52.6005 21.4298 52.7486 21.4589C53.0478 21.309 53.3634 21.1882 53.6842 21.1121C53.8889 21.0636 54.1068 21.0378 54.3174 21.0472Z" fill="#0B0042"/>
<path d="M56.2747 21.3852C56.0702 21.9786 56.021 22.6784 56.1718 23.3956C56.3851 24.4097 56.9498 25.2316 57.6509 25.6798C57.6885 25.6401 57.727 25.6012 57.7641 25.5611C57.7768 25.2766 57.7774 24.9697 57.7562 24.6316C57.3466 24.2538 57.0281 23.7041 56.8913 23.0537C56.7734 22.4933 56.81 21.9474 56.9642 21.4798C56.9185 21.3893 56.8721 21.3036 56.8251 21.2217C56.6413 21.2746 56.4577 21.3288 56.2747 21.3852Z" fill="white"/>
<path d="M56.5508 20.7943C56.4401 20.975 56.3476 21.1736 56.2746 21.3855C56.4576 21.3292 56.641 21.2749 56.8248 21.2221C56.7345 21.0645 56.6425 20.922 56.5508 20.7943Z" fill="white"/>
<path d="M60.765 22.2386C61.055 23.6179 60.4229 24.9184 59.3529 25.1434C59.2494 25.1651 59.1457 25.173 59.0423 25.1736C58.9658 25.4786 58.8584 25.7562 58.7148 26.0448C58.8922 26.0567 59.0712 26.0458 59.2496 26.0083C60.5874 25.727 61.378 24.101 61.0153 22.3765C60.9913 22.2621 60.9624 22.1504 60.9297 22.0412L60.6593 21.8609C60.7007 21.983 60.7375 22.108 60.765 22.2386Z" fill="white"/>
<path d="M58.9137 20.1433C59.6652 20.2803 60.3487 20.9411 60.6605 21.862L60.9309 22.0422C60.5568 20.792 59.6379 19.8964 58.636 19.7461C58.6973 19.8407 58.7585 19.9352 58.8199 20.0299C58.8516 20.0678 58.8831 20.1056 58.9137 20.1433Z" fill="white"/>
<path d="M58.5512 25.1028C58.3459 25.3497 58.1335 25.5912 57.9142 25.8268C58.1707 25.9508 58.4405 26.0256 58.7147 26.0441C58.8583 25.7556 58.9656 25.478 59.0421 25.173C58.8763 25.1741 58.7116 25.1516 58.5512 25.1028Z" fill="white"/>
<path d="M56.9635 21.4796C57.002 21.3627 57.0466 21.2503 57.0996 21.1444C57.0077 21.1698 56.916 21.1951 56.8244 21.2214C56.8714 21.3033 56.9178 21.3891 56.9635 21.4796Z" fill="white"/>
<path d="M58.2643 24.9867C58.0844 24.897 57.9135 24.7777 57.7558 24.6322C57.777 24.9702 57.7763 25.277 57.7637 25.5615C57.9369 25.3747 58.1031 25.1823 58.2643 24.9867Z" fill="white"/>
<path d="M58.9143 20.1427C58.8836 20.1051 58.8523 20.0672 58.8206 20.0293C58.8442 20.0659 58.8679 20.1022 58.8916 20.1388C58.8991 20.1401 58.9067 20.1413 58.9143 20.1427Z" fill="white"/>
<path d="M57.528 20.5617C57.2979 20.5194 57.07 20.4656 56.8452 20.4004C56.7363 20.519 56.6373 20.6505 56.5498 20.7933C56.6414 20.921 56.7335 21.0633 56.8238 21.2209C56.9154 21.1946 57.0072 21.1694 57.0991 21.144C57.2118 20.9187 57.3569 20.7223 57.528 20.5617Z" fill="white"/>
<path d="M58.8201 20.0283C58.7588 19.9336 58.6976 19.8391 58.6362 19.7445C58.6131 19.7411 58.5898 19.737 58.5667 19.7344C58.6547 19.8328 58.7387 19.9308 58.8201 20.0283Z" fill="white"/>
<path d="M58.59 20.1191C58.6908 20.1169 58.7914 20.122 58.8906 20.1387C58.8669 20.1021 58.8432 20.0656 58.8195 20.029C58.7381 19.9316 58.6541 19.8337 58.5661 19.7353C58.5236 19.7304 58.4809 19.7268 58.4382 19.7246C58.4908 19.8554 58.542 19.9867 58.59 20.1191Z" fill="white"/>
<path d="M57.7915 20.2285C57.7873 20.2168 57.7835 20.2046 57.7784 20.1932C57.7275 20.0814 57.6797 19.9685 57.6316 19.8558C57.3329 19.972 57.068 20.1592 56.8459 20.4012C57.0706 20.4664 57.2986 20.5202 57.5287 20.5625C57.6303 20.467 57.7413 20.385 57.8609 20.3182C57.8301 20.2954 57.8052 20.2658 57.7915 20.2285Z" fill="white"/>
<path d="M58.2923 20.1512C58.2959 20.1504 58.2991 20.149 58.3027 20.1482C58.3984 20.1281 58.4941 20.1205 58.5897 20.1184C58.5416 19.9859 58.4905 19.8546 58.4379 19.7239C58.3506 19.7195 58.2628 19.7211 58.175 19.7285C58.2089 19.8118 58.2415 19.8956 58.272 19.9797C58.2926 20.0367 58.2999 20.0958 58.2923 20.1512Z" fill="white"/>
<path d="M46.8907 21.8895C46.8928 21.922 46.8881 21.8576 46.8907 21.8895V21.8895Z" fill="white"/>
<path d="M46.8978 21.9784C46.8958 21.9549 46.8941 21.9312 46.8922 21.9076C46.8914 21.8988 46.891 21.893 46.8905 21.8885C46.8925 21.9186 46.8881 21.8589 46.8905 21.8885C46.8902 21.8839 46.8898 21.8779 46.8892 21.8685C46.8738 21.6383 46.8623 21.408 46.8587 21.1774C46.8526 20.7996 46.8675 20.4213 46.9036 20.0451C46.9062 19.9923 46.9113 19.9393 46.9183 19.8864C46.9362 19.729 46.9577 19.572 46.9846 19.4158C47.0598 18.981 47.1822 18.547 47.3534 18.1326C47.1882 18.0624 47.0168 18.0049 46.8383 17.9624C46.7275 18.2338 46.6358 18.5151 46.5647 18.804C46.2905 19.9164 46.2796 21.0608 46.378 22.1961C46.5572 22.1631 46.7387 22.1708 46.9186 22.2147C46.9151 22.1775 46.9116 22.1403 46.9083 22.1031C46.9047 22.0615 46.9011 22.0201 46.8978 21.9784Z" fill="white"/>
<path d="M46.3789 22.2131C46.3858 22.2914 46.3931 22.3696 46.4003 22.4479C46.4138 22.5935 46.5894 22.6843 46.7205 22.6568C46.8771 22.6238 46.9429 22.4826 46.9294 22.3366C46.9257 22.2956 46.9218 22.2546 46.9181 22.2135C46.7382 22.1696 46.5567 22.1618 46.3775 22.1948C46.378 22.2008 46.3783 22.2071 46.3789 22.2131Z" fill="white"/>
<path d="M46.9034 20.0435C46.9085 19.9906 46.912 19.9376 46.918 19.8849C46.9111 19.9378 46.906 19.9907 46.9034 20.0435Z" fill="white"/>
<path d="M49.574 15.7213C49.9631 15.5282 50.3775 15.3822 50.803 15.2863L50.2108 14.8913C50.0985 14.9264 49.9871 14.9643 49.8772 15.0055L49.574 15.7213Z" fill="white"/>
<path d="M53.375 15.3652L52.8868 14.6877C52.5894 14.6335 52.2868 14.6062 51.9813 14.6088C51.3882 14.6137 50.7855 14.7123 50.2112 14.8913L50.8035 15.2863C51.6537 15.0948 52.5478 15.1068 53.375 15.3652Z" fill="white"/>
<path d="M49.0051 16.0467C49.1867 15.9264 49.377 15.8182 49.5732 15.7208L49.8763 15.005C49.6595 15.0862 49.448 15.1786 49.2441 15.2826C48.1157 15.8576 47.3036 16.82 46.8375 17.9614C47.016 18.0039 47.1874 18.0614 47.3526 18.1316C47.6943 17.3047 48.2341 16.5571 49.0051 16.0467Z" fill="white"/>
<path d="M53.6956 15.4781C54.8176 15.9275 55.7521 16.827 56.4499 17.7818C56.9313 18.156 57.3931 18.5545 57.8149 18.9596C57.6581 18.6612 57.4871 18.3706 57.309 18.0897C56.5595 16.9069 55.578 15.7994 54.3082 15.1659C53.8569 14.9407 53.3789 14.7772 52.8862 14.6875L53.3742 15.3649C53.4825 15.3988 53.5899 15.4358 53.6956 15.4781Z" fill="white"/>
<path d="M56.6547 18.072C56.8619 18.3791 57.0527 18.6972 57.229 19.0231L57.8428 19.0121C57.8335 18.9944 57.8237 18.977 57.8145 18.9592C57.3927 18.5541 56.9309 18.1555 56.4495 17.7812C56.52 17.8778 56.589 17.9747 56.6547 18.072Z" fill="white"/>
<path d="M57.6476 19.8515L57.624 19.8359C57.627 19.843 57.6301 19.85 57.6331 19.857C57.6378 19.8552 57.6428 19.8534 57.6476 19.8515Z" fill="white"/>
<path d="M57.6239 19.8353L57.6457 19.85C57.7398 19.8141 57.8369 19.7844 57.9375 19.7632C58.0169 19.7465 58.0964 19.7353 58.1759 19.7287C58.0771 19.4858 57.965 19.2468 57.8437 19.0125L57.23 19.0234C57.3054 19.163 57.3791 19.3035 57.4488 19.4459C57.5116 19.5741 57.5682 19.7046 57.6239 19.8353Z" fill="white"/>
<path d="M57.7783 20.1932C57.7834 20.2046 57.7874 20.2168 57.7916 20.2285C57.8052 20.2658 57.83 20.2954 57.8608 20.3182C57.9539 20.2661 58.0518 20.223 58.1547 20.1905L57.6451 19.8506C57.6406 19.8523 57.636 19.8541 57.6316 19.8558C57.6797 19.9685 57.7274 20.0815 57.7783 20.1932Z" fill="white"/>
<path d="M57.6457 19.8504L58.1553 20.1902C58.2005 20.1759 58.246 20.1621 58.2931 20.1518C58.3006 20.0965 58.2933 20.0372 58.2727 19.9803C58.2422 19.8961 58.2098 19.8125 58.1759 19.7292C58.0964 19.7358 58.0169 19.747 57.9375 19.7637C57.8369 19.7849 57.7398 19.8145 57.6457 19.8504Z" fill="white"/>
<path d="M57.7556 24.631C57.7297 24.2198 57.6718 23.7627 57.5622 23.2416C57.4109 22.5219 57.1975 21.9431 56.9634 21.4792C56.8092 21.9468 56.7727 22.4927 56.8905 23.0531C57.0273 23.7035 57.346 24.2531 57.7556 24.631Z" fill="#059E9E"/>
<path d="M58.7949 20.741C59.0821 21.7003 59.239 22.6951 59.2116 23.6946C59.195 24.3025 59.1451 24.7636 59.0421 25.1739C59.1455 25.1732 59.2492 25.1654 59.3526 25.1436C60.4226 24.9186 61.0548 23.6181 60.7648 22.2389C60.7373 22.1082 60.7004 21.9832 60.6591 21.8612L58.94 20.7145C58.8917 20.7235 58.8431 20.7316 58.7949 20.741Z" fill="#059E9E"/>
<path d="M58.9411 20.7135L60.6601 21.8601C60.3484 20.9392 59.6648 20.2785 58.9134 20.1415C59.0527 20.3132 59.1816 20.4829 59.2971 20.6487C59.1781 20.6687 59.0596 20.6912 58.9411 20.7135Z" fill="#059E9E"/>
<path d="M58.7954 20.7404C58.2247 20.8519 57.66 20.9894 57.0997 21.1441C57.0468 21.25 57.0019 21.3623 56.9634 21.4791C57.1975 21.943 57.4109 22.5218 57.5623 23.2415C57.6719 23.7626 57.7298 24.2198 57.7556 24.631C57.9134 24.7766 58.0843 24.8959 58.2642 24.9856C58.4155 24.802 58.5629 24.616 58.7013 24.4247C58.8166 24.2653 59.0735 24.432 58.9578 24.592C58.8777 24.7027 58.7922 24.8096 58.7063 24.9158C58.6554 24.9788 58.6035 25.0408 58.5517 25.1031C58.712 25.1519 58.8768 25.1744 59.0426 25.1733C59.1456 24.763 59.1956 24.302 59.2122 23.694C59.2396 22.6946 59.0826 21.6997 58.7954 20.7404Z" fill="#059E9E"/>
<path d="M58.7954 20.7416C58.8437 20.7322 58.8923 20.7241 58.9406 20.7151L58.8797 20.6745C58.8448 20.6752 58.8098 20.6738 58.7749 20.6738C58.7818 20.6964 58.7887 20.719 58.7954 20.7416Z" fill="#04ADAD"/>
<path d="M59.2281 20.6572C59.1124 20.6655 58.9967 20.6705 58.8808 20.6726L58.9417 20.7133C59.0603 20.691 59.1788 20.6685 59.2978 20.6485C59.1823 20.4827 59.0533 20.3129 58.914 20.1412C58.9064 20.1398 58.8988 20.1386 58.8912 20.1373C59.0035 20.3106 59.1158 20.484 59.2281 20.6572Z" fill="#04ADAD"/>
<path d="M57.5292 20.5628C57.3581 20.7233 57.2129 20.9198 57.1001 21.1451C57.6603 20.9904 58.2251 20.8529 58.7958 20.7414C58.7891 20.7189 58.7822 20.6962 58.7753 20.6736C58.3576 20.6748 57.9401 20.6383 57.5292 20.5628Z" fill="#059E9E"/>
<path d="M58.7757 20.6739C58.8106 20.6738 58.8456 20.6753 58.8805 20.6746L58.7478 20.5859C58.757 20.6153 58.7668 20.6445 58.7757 20.6739Z" fill="#04ADAD"/>
<path d="M58.8805 20.674C58.9963 20.6719 59.1121 20.6669 59.2278 20.6587C59.1155 20.4854 59.0033 20.312 58.891 20.1387C58.7918 20.122 58.6913 20.1169 58.5906 20.1191C58.6465 20.2734 58.6985 20.4291 58.7478 20.5855L58.8805 20.674Z" fill="#059E9E"/>
<path d="M58.1566 20.3438C58.0708 20.388 57.9439 20.3784 57.8618 20.3173C57.7422 20.3841 57.6312 20.4661 57.5295 20.5616C57.9404 20.6371 58.3581 20.6736 58.7758 20.6725C58.7668 20.6431 58.7569 20.614 58.7478 20.5847L58.2547 20.2558C58.232 20.2906 58.2006 20.3211 58.1566 20.3438Z" fill="#059E9E"/>
<path d="M58.2919 20.1506C58.2867 20.1881 58.2739 20.2235 58.2532 20.2552L58.7464 20.5841C58.6971 20.4277 58.645 20.2721 58.5891 20.1178C58.4936 20.1199 58.398 20.1276 58.3023 20.1477C58.2987 20.1484 58.2955 20.1499 58.2919 20.1506Z" fill="#059E9E"/>
<path d="M58.1556 20.3436C58.1995 20.3209 58.231 20.2903 58.2537 20.2555L58.1545 20.1893C58.0517 20.2219 57.9537 20.2648 57.8607 20.3169C57.9429 20.378 58.0698 20.3878 58.1556 20.3436Z" fill="#059E9E"/>
<path d="M58.2919 20.1522C58.2448 20.1625 58.1992 20.1764 58.154 20.1907L58.2533 20.2568C58.274 20.2251 58.2867 20.1898 58.2919 20.1522Z" fill="#04ADAD"/>
<path d="M57.651 25.6789C57.1081 26.251 56.5178 26.7825 55.9171 27.2714C55.4541 27.6483 54.9704 27.9978 54.4685 28.3206C54.5591 28.3387 54.6328 28.3803 54.6751 28.4484C54.6911 28.474 54.7016 28.5019 54.7077 28.5314C55.8059 27.8165 56.8246 26.9683 57.7338 26.0201C57.7416 25.9294 57.7488 25.8368 57.7548 25.7417C57.7199 25.7217 57.6853 25.7008 57.651 25.6789Z" fill="#0B0042"/>
<path d="M57.7334 26.0203C57.7946 25.9565 57.8547 25.8918 57.9149 25.8271C57.8606 25.801 57.8071 25.7723 57.7542 25.7418C57.7482 25.8369 57.7412 25.9296 57.7334 26.0203Z" fill="#0B0042"/>
<path d="M57.7539 25.7417C57.7576 25.6823 57.7606 25.6214 57.7634 25.5601C57.7263 25.6002 57.6879 25.6391 57.6502 25.6788C57.6845 25.7008 57.719 25.7216 57.7539 25.7417Z" fill="#0B0042"/>
<path d="M57.7643 25.5611C57.7615 25.6225 57.7585 25.6833 57.7548 25.7428C57.8076 25.7732 57.8611 25.8019 57.9154 25.8281C58.1346 25.5924 58.3471 25.3509 58.5524 25.104C58.4545 25.0742 58.3589 25.0331 58.2649 24.9863C58.1037 25.1819 57.9375 25.3743 57.7643 25.5611Z" fill="#0B0042"/>
<path d="M58.9579 24.592C59.0736 24.432 58.8169 24.2653 58.7016 24.4247C58.5632 24.616 58.4156 24.802 58.2643 24.9856C58.3583 25.0324 58.4538 25.0733 58.5518 25.1031C58.6036 25.0408 58.6557 24.9788 58.7066 24.9158C58.7924 24.8096 58.8778 24.7027 58.9579 24.592Z" fill="#0B0042"/>
<path d="M53.8653 28.4686C53.5381 28.6723 53.3701 28.9938 53.4901 29.1866C53.5668 29.3099 53.7429 29.3498 53.9452 29.3102L54.0339 29.2635L54.6709 28.7707C54.7088 28.6866 54.7226 28.6043 54.7077 28.5321C54.5952 28.6054 54.482 28.6775 54.3679 28.7479C54.1996 28.8517 54.0611 28.5784 54.2275 28.4757C54.3088 28.4255 54.3883 28.3728 54.4686 28.3212C54.3026 28.2879 54.0771 28.3367 53.8653 28.4686Z" fill="#0B0042"/>
<path d="M53.9448 29.3099C53.9587 29.3072 53.9728 29.3028 53.9869 29.2993L54.0335 29.2634L53.9448 29.3099Z" fill="#0B0042"/>
<path d="M54.4784 29.0297C54.5654 28.9479 54.6309 28.8584 54.6704 28.7707L54.0332 29.2637L54.4784 29.0297Z" fill="#0B0042"/>
<path d="M53.9862 29.3001C54.0883 29.275 54.195 29.2323 54.2989 29.1677C54.3657 29.1261 54.4254 29.0795 54.4778 29.0302L54.0326 29.2642L53.9862 29.3001Z" fill="#0B0042"/>
<path d="M54.3682 28.7485C54.4823 28.6782 54.5955 28.606 54.708 28.5327C54.7019 28.5032 54.6914 28.4753 54.6755 28.4498C54.6331 28.3817 54.5596 28.34 54.4689 28.3218C54.3886 28.3734 54.3091 28.4262 54.2279 28.4763C54.0614 28.579 54.1999 28.8523 54.3682 28.7485Z" fill="#0B0042"/>
<path d="M57.8508 30.4201C57.7379 30.3423 57.7104 30.19 57.6936 30.054C57.6371 29.5988 57.5623 29.214 57.5221 28.8515C57.522 28.8502 57.5217 28.8494 57.5216 28.8481C57.5215 28.8465 57.5215 28.8451 57.5214 28.8435C57.5014 28.6617 57.4909 28.4855 57.4959 28.3086C57.449 28.3642 57.3988 28.4214 57.3426 28.4825C57.1724 28.6678 56.633 29.3184 56.3818 29.5559C56.1778 29.7486 55.5008 30.1399 55.259 30.2521C54.8647 30.4353 54.5002 30.6168 54.0796 30.6647C54.014 30.6722 53.9528 30.6791 53.8951 30.685C53.5795 30.8199 53.2269 30.8274 52.8795 30.7984C52.8093 31.8109 52.3907 32.8027 51.6675 33.5173C52.2552 34.2576 53.2722 34.4731 54.2067 34.6158C55.4133 34.8002 56.6636 34.9427 57.8401 34.6176C58.6258 34.4006 59.3531 33.9755 59.9279 33.3975C60.0538 33.2709 60.1815 33.0993 60.1248 32.9299C60.0846 32.8096 59.9647 32.7382 59.8564 32.6721C59.0333 32.1699 58.3927 31.3771 58.0693 30.4693C57.9909 30.4739 57.9145 30.464 57.8508 30.4201Z" fill="#FFC3C5"/>
<path d="M51.2632 32.3848C50.4891 32.3848 49.7599 32.8259 48.8457 33.1459C47.8609 33.4907 47.229 34.1321 46.5152 34.8123C45.8868 35.4111 44.4567 37.363 43.8936 38.0235C42.2916 39.9029 40.7411 42.0803 39.3023 44.0874C38.1946 45.6325 37.3797 45.9442 35.8828 47.1164C34.8433 47.9305 33.6263 48.4786 32.4553 49.0887C30.8162 49.9427 29.2471 50.9312 27.7691 52.041C27.6417 52.1366 27.5093 52.2406 27.4506 52.3886C27.3946 52.5297 27.4148 52.6879 27.4358 52.8382C27.5128 53.3882 27.5897 53.938 27.6667 54.488C27.6803 54.5853 27.6968 54.6891 27.763 54.7617C27.8411 54.8474 27.9665 54.8668 28.0816 54.8793C29.1148 54.9922 30.158 54.9644 31.1959 54.909C32.239 54.8533 33.2854 54.769 34.3032 54.5336C35.3163 54.2993 36.2886 53.9182 37.2567 53.5385C38.7061 52.97 40.1659 52.3962 41.4797 51.5608C43.9644 49.9808 45.7848 47.5598 47.409 45.1038C47.7111 44.6473 48.0094 44.1853 48.2331 43.6857C48.5011 43.0871 48.6568 42.4455 48.8101 41.8079C49.1077 40.5706 49.4016 39.3325 49.6918 38.0935" fill="#01ABA1"/>
<path d="M58.5951 31.4863C57.3487 32.5119 56.1218 32.9278 54.362 32.8188C53.5797 32.7704 53.1115 32.6061 52.5731 32.1378C51.891 32.7658 51.3193 33.6067 51.1615 34.438C50.6591 37.0847 50.6298 39.7745 50.6017 42.453C50.5568 46.7213 50.512 50.9897 50.4671 55.2581C50.4667 55.2964 50.4673 55.3377 50.4946 55.3689C50.5265 55.4054 50.585 55.4174 50.6384 55.4266C52.6383 55.7709 54.6961 55.8873 56.7345 55.7717C57.6528 55.7196 58.6061 55.6245 59.4698 55.8857C59.3456 54.7377 59.7022 53.5963 60.0184 52.4734C60.7126 50.0088 61.2268 47.4893 61.1251 44.9611C61.0912 44.1156 60.9884 43.2728 60.9551 42.4273C60.8991 41.0036 61.0399 39.5792 61.0206 38.1548C61.0027 36.8236 60.8445 35.4937 60.5484 34.1847C60.3093 33.1281 59.3962 32.3363 58.5951 31.4863Z" fill="white"/>
<path d="M52.5734 32.1387C52.5124 33.9897 52.3226 35.6527 52.3043 37.7763C52.2958 38.7549 52.2466 39.5031 52.2486 40.4811C52.2501 41.1533 52.1995 41.8249 52.149 42.4959C51.83 46.7321 51.5111 50.9685 51.1921 55.2047C51.1864 55.2814 51.1782 55.3633 51.1211 55.4241C51.029 55.5221 50.8539 55.5253 50.7033 55.5198C49.1089 55.4613 47.5143 55.4026 45.9199 55.3441C46.051 54.202 46.1821 53.06 46.3131 51.9179C46.4463 50.7579 46.5794 49.5925 46.4961 48.4294C46.413 47.2698 46.1152 46.1234 46.0897 44.9619C46.0727 44.1932 46.1752 43.4264 46.2776 42.6622C46.4227 41.5796 46.5676 40.4971 46.7126 39.4145C46.9719 37.4792 47.289 35.426 48.7871 33.9164C49.207 33.4933 49.7064 33.1288 50.2035 32.7663C50.8497 32.295 51.7158 32.2272 52.5734 32.1387Z" fill="white"/>
<path d="M58.5954 31.4863C58.6692 33.1141 58.6389 36.8006 58.4458 39.0407C57.8943 45.4372 57.8141 49.2048 56.5506 55.4995C56.5213 55.6454 56.5002 55.8166 56.6273 55.9207C56.7278 56.0031 56.8844 56.0105 57.0259 56.0128C58.8459 56.043 60.666 56.0734 62.4859 56.1036C62.5962 56.1055 62.7141 56.1056 62.8066 56.0559C62.9117 55.9995 62.9578 55.8937 62.9956 55.7949C63.7251 53.8829 63.8413 51.8523 63.9049 49.8481C63.9894 47.1906 63.9915 44.5315 63.9111 41.874C63.8338 39.3153 63.6874 36.7048 64.5488 34.2464C64.6753 33.8854 64.9599 33.5465 64.7012 33.2373C64.5669 33.0768 64.2025 32.9015 63.9915 32.814C62.5331 32.2092 60.1675 31.8462 58.5954 31.4863Z" fill="white"/>
<path d="M57.4229 49.762C57.4229 49.762 59.0898 49.1156 60.6677 47.0792C62.2457 45.0427 62.0352 43.6122 62.0352 42.4793C62.0352 41.3465 61.8463 35.0888 64.0042 35.2776C66.1621 35.4664 64.3819 45.9589 64.3819 45.9589L61.5766 49.1956L58.4462 50.5442" fill="#04ADAD"/>
<path d="M48.7057 53.6865C48.7057 53.6865 46.1904 52.8236 45.1316 53.2187C44.0728 53.6138 42.5958 54.2127 42.5984 55.7631L48.6665 55.8825" fill="white"/>
<path d="M64.6207 33.1302C63.913 34.117 63.2922 35.4573 62.9228 36.9775C62.4465 38.938 62.5827 39.7834 62.4932 42.0544C62.4426 43.3389 62.5436 44.6479 62.0833 46.263C61.7267 47.5142 60.7169 48.093 59.5326 48.6238C58.3483 49.1545 57.0872 49.4866 55.8586 49.9036C52.9304 50.8976 50.1531 51.6091 47.3942 53.008C46.5438 53.4393 47.4511 54.5118 47.4373 54.6794C47.4274 54.8006 47.4886 54.915 47.5479 55.021C48.041 55.9031 48.1277 55.7243 48.6006 56.0463C48.7708 56.1622 49.3124 55.9193 49.4909 56.0217C49.6617 56.1196 50.1439 56.0151 50.3406 56.0098C51.0543 55.9904 51.8751 56.0251 52.5805 55.9145C56.2205 55.344 59.3343 56.4533 62.7545 55.0791C63.6885 54.7038 64.6295 54.2878 65.3735 53.6083C66.4274 52.6456 66.9783 51.2549 67.3865 49.8848C68.9253 44.7186 68.9797 38.9391 66.2475 34.2942C65.8985 33.7008 65.2206 33.1976 64.6207 33.1302Z" fill="white"/>
<path d="M90.2548 55.9591C89.4485 55.9591 88.6422 55.9591 87.8359 55.9591C85.6615 55.9591 83.4867 55.9591 81.3123 55.9591C78.0883 55.9591 74.8644 55.9591 71.6404 55.9591C67.7071 55.9591 63.7739 55.9591 59.8405 55.9591C55.5475 55.9591 51.2542 55.9591 46.9612 55.9591C42.5982 55.9591 38.2353 55.9591 33.8723 55.9591C29.832 55.9591 25.7916 55.9591 21.7513 55.9591C18.3247 55.9591 14.8982 55.9591 11.4716 55.9591C9.00804 55.9591 6.54445 55.9591 4.08086 55.9591C2.91716 55.9591 1.75101 55.9369 0.587561 55.9591C0.536672 55.9601 0.485662 55.9591 0.434773 55.9591C-0.144433 55.9591 -0.145416 56.8594 0.434773 56.8594C1.24101 56.8594 2.04737 56.8594 2.85361 56.8594C5.02809 56.8594 7.20281 56.8594 9.37729 56.8594C12.6013 56.8594 15.8251 56.8594 19.0491 56.8594C22.9825 56.8594 26.9157 56.8594 30.849 56.8594C35.1421 56.8594 39.4353 56.8594 43.7284 56.8594C48.0913 56.8594 52.4543 56.8594 56.8173 56.8594C60.8576 56.8594 64.898 56.8594 68.9383 56.8594C72.3648 56.8594 75.7914 56.8594 79.2179 56.8594C81.6815 56.8594 84.1451 56.8594 86.6087 56.8594C87.7724 56.8594 88.9385 56.8816 90.102 56.8594C90.1529 56.8584 90.2039 56.8594 90.2548 56.8594C90.834 56.8594 90.835 55.9591 90.2548 55.9591Z" fill="#0B0042"/>
<path d="M55.3615 56.1103H11.8629C11.6192 56.1103 11.4216 55.9127 11.4216 55.6689V55.3926C11.4216 55.1488 11.6192 54.9512 11.8629 54.9512H55.3615C55.6053 54.9512 55.8028 55.1488 55.8028 55.3926V55.6689C55.8028 55.9127 55.6053 56.1103 55.3615 56.1103Z" fill="#80B8BC"/>
<path d="M38.6134 56.11H12.1198C11.7608 56.11 11.4597 55.839 11.4221 55.4819L9.57376 37.9235C9.53012 37.5092 9.855 37.1484 10.2715 37.1484H37.0115C37.3742 37.1484 37.6772 37.425 37.7102 37.7863L39.3121 55.3447C39.3496 55.7556 39.0261 56.11 38.6134 56.11Z" fill="#80B8BC"/>
<path d="M37.7506 56.11H11.257C10.898 56.11 10.5969 55.839 10.5593 55.4819L8.71097 37.9235C8.66733 37.5092 8.99221 37.1484 9.40867 37.1484H36.1487C36.5114 37.1484 36.8144 37.425 36.8474 37.7863L38.4493 55.3447C38.4868 55.7556 38.1633 56.11 37.7506 56.11Z" fill="#94D5DB"/>
<g opacity="0.48">
<path d="M24.0079 46.8625C24.0079 47.6731 23.3506 48.3304 22.5399 48.3304C21.7293 48.3304 21.072 47.6731 21.072 46.8625C21.072 46.0518 21.7293 45.3945 22.5399 45.3945C23.3506 45.3945 24.0079 46.0518 24.0079 46.8625Z" fill="white"/>
</g>
<path d="M49.4483 23.7671C49.2779 23.803 49.1767 24.008 49.2223 24.2251C49.268 24.4423 49.4432 24.5892 49.6136 24.5533C49.7841 24.5175 49.8853 24.3124 49.8396 24.0953C49.794 23.8782 49.6188 23.7313 49.4483 23.7671Z" fill="#0B0042"/>
<path d="M53.2462 22.564C53.0757 22.5998 52.9745 22.8049 53.0202 23.022C53.0658 23.2391 53.241 23.3861 53.4115 23.3502C53.5819 23.3144 53.6832 23.1093 53.6375 22.8922C53.5918 22.6751 53.4166 22.5282 53.2462 22.564Z" fill="#0B0042"/>
<path d="M50.9995 27.4331L50.7177 27.5271C50.7177 27.5271 51.1459 28.3284 51.963 28.4613C52.1979 28.4996 52.4648 28.4829 52.763 28.3756C53.7497 28.0208 54.3067 26.328 54.3067 26.328L50.9995 27.4331Z" fill="white"/>
</svg>
