<svg width="78" height="56" viewBox="0 0 78 56" fill="none" xmlns="http://www.w3.org/2000/svg">
<path d="M45.0333 29.9667C42.6833 29.9667 40.7069 29.1653 39.1042 27.5625C37.5014 25.9597 36.7 23.9833 36.7 21.6333C36.7 19.2833 37.5014 17.3069 39.1042 15.7042C40.7069 14.1014 42.6833 13.3 45.0333 13.3C47.3833 13.3 49.3597 14.1014 50.9625 15.7042C52.5653 17.3069 53.3667 19.2833 53.3667 21.6333C53.3667 23.9833 52.5653 25.9597 50.9625 27.5625C49.3597 29.1653 47.3833 29.9667 45.0333 29.9667ZM12.5 43.2667V0H77.5667V43.2667H12.5ZM23.4 39.1H66.6667C66.6667 37.2389 67.3264 35.6514 68.6458 34.3375C69.9625 33.0264 71.5458 32.3708 73.3958 32.3708V10.8958C71.5347 10.8958 69.9472 10.2375 68.6333 8.92083C67.3222 7.60139 66.6667 6.01667 66.6667 4.16667H23.4C23.4 6.02778 22.7403 7.61528 21.4208 8.92917C20.1042 10.2403 18.5208 10.8958 16.6708 10.8958V32.3708C18.5319 32.3708 20.1194 33.0306 21.4333 34.35C22.7444 35.6667 23.4 37.25 23.4 39.1ZM0 55.7667V12.3375H4.16667V51.6H65.225V55.7667H0Z" fill="white"/>
</svg>
