<svg width="64" height="52" viewBox="0 0 64 52" fill="none" xmlns="http://www.w3.org/2000/svg">
<path fill-rule="evenodd" clip-rule="evenodd" d="M26.0031 0.478516H37.9964C43.3572 0.478516 47.6039 0.478516 50.926 0.924766C54.3443 1.3856 57.1122 2.35393 59.2968 4.5356C61.4785 6.72018 62.4468 9.4881 62.9076 12.9064C63.1701 14.8693 63.2781 17.1531 63.3218 19.7985C63.3599 20.0202 63.3639 20.2465 63.3335 20.4693C63.3539 22.1202 63.3539 23.9052 63.3539 25.836V26.1627C63.3539 31.5235 63.3539 35.7702 62.9076 39.0923C62.4468 42.5106 61.4785 45.2785 59.2968 47.4631C57.1122 49.6448 54.3443 50.6131 50.926 51.0739C47.601 51.5202 43.3572 51.5202 37.9964 51.5202H26.0031C20.6422 51.5202 16.3956 51.5202 13.0735 51.0739C9.65514 50.6131 6.88722 49.6448 4.70264 47.4631C2.52097 45.2785 1.55264 42.5106 1.09181 39.0923C0.645556 35.7673 0.645556 31.5235 0.645556 26.1627V25.836C0.645556 23.9052 0.645556 22.1202 0.665972 20.4693C0.634701 20.2466 0.637652 20.0204 0.674722 19.7985C0.721389 17.1531 0.829306 14.8693 1.09181 12.9064C1.55264 9.4881 2.52097 6.72018 4.70264 4.5356C6.88722 2.35393 9.65514 1.3856 13.0735 0.924766C16.3985 0.478516 20.6422 0.478516 26.0031 0.478516ZM5.02639 22.3535C5.02056 23.4852 5.02056 24.6985 5.02056 25.9993C5.02056 31.5614 5.02639 35.5135 5.42889 38.5118C5.82264 41.4431 6.56347 43.1348 7.79722 44.3685C9.03097 45.6023 10.7226 46.3431 13.6568 46.7368C16.6551 47.1393 20.6043 47.1452 26.1664 47.1452H37.8331C43.3951 47.1452 47.3472 47.1393 50.3456 46.7368C53.2768 46.3431 54.9685 45.6023 56.2022 44.3685C57.436 43.1348 58.1768 41.4431 58.5706 38.5089C58.9731 35.5106 58.9789 31.5614 58.9789 25.9993C58.9789 24.6985 58.9789 23.4852 58.973 22.3535H5.02639ZM58.9031 17.9785H5.09639C5.15472 16.2664 5.25389 14.7877 5.42889 13.4868C5.82264 10.5556 6.56347 8.86393 7.79722 7.63018C9.03097 6.39643 10.7226 5.6556 13.6568 5.26185C16.6551 4.85935 20.6043 4.85352 26.1664 4.85352H37.8331C43.3951 4.85352 47.3472 4.85935 50.3456 5.26185C53.2768 5.6556 54.9685 6.39643 56.2022 7.63018C57.436 8.86393 58.1768 10.5556 58.5706 13.4898C58.7456 14.7877 58.8447 16.2664 58.9031 17.9785ZM12.3122 37.666C12.3122 37.0859 12.5427 36.5295 12.9529 36.1192C13.3632 35.709 13.9196 35.4785 14.4997 35.4785H26.1664C26.7465 35.4785 27.3029 35.709 27.7132 36.1192C28.1234 36.5295 28.3539 37.0859 28.3539 37.666C28.3539 38.2462 28.1234 38.8026 27.7132 39.2128C27.3029 39.623 26.7465 39.8535 26.1664 39.8535H14.4997C13.9196 39.8535 13.3632 39.623 12.9529 39.2128C12.5427 38.8026 12.3122 38.2462 12.3122 37.666ZM31.2706 37.666C31.2706 37.0859 31.501 36.5295 31.9113 36.1192C32.3215 35.709 32.8779 35.4785 33.4581 35.4785H37.8331C38.4132 35.4785 38.9696 35.709 39.3798 36.1192C39.7901 36.5295 40.0206 37.0859 40.0206 37.666C40.0206 38.2462 39.7901 38.8026 39.3798 39.2128C38.9696 39.623 38.4132 39.8535 37.8331 39.8535H33.4581C32.8779 39.8535 32.3215 39.623 31.9113 39.2128C31.501 38.8026 31.2706 38.2462 31.2706 37.666Z" fill="white"/>
</svg>
